<?xml version="1.0" encoding="UTF-8"?>
<svg xmlns="http://www.w3.org/2000/svg" viewBox="0 0 610.52 892.54">
  <defs>
    <style>
      .cls-1 {
        fill: #c58bb1;
      }

      .cls-2 {
        stroke: #000;
        stroke-miterlimit: 10;
        stroke-width: 2px;
      }
    </style>
  </defs>
  <g id="Calque_2" data-name="Calque 2">
    <path class="cls-1" d="m452.75,568.6c-24.17,218.55-168.24,335.59-281.93,323.02-113.69-12.57-190.54-139.65-166.37-358.19C28.63,314.88,141.81,91.16,258.35,100.19c132.12,10.24,218.57,249.86,194.39,468.4Z"/>
  </g>
  <g id="Calque_1" data-name="Calque 1">
    <path class="cls-2" d="m610.18,712.34c-9.3,3.41-18.17,5.98-27.68.54-9.45-4.33-21.05-3.6-31.21-3.16-5.58.63-8.79,4.78-8.36,10.88,2.22,16.84,40.05,4.16,51.46,2.63-.52,6.7-5.25,9.36-9.74,10.95-14.12,4.98-28.46,9.3-42.76,13.76-1.19.38-3.11.46-3.93-.23-9.49-7.98-21.33-8.42-32.64-9.79-13.82-1.43-42.66-4.04-43.22,15.8.7,6.13,6.1,7.62,10.92,7.48,21.45-.69,42.2-2.01,63.36-6.62,12.22,58.6-134.92,85.58-173.16,65.45-3.4-2.92-2.8-7.34,2.68-7.34,13.45,4.28,141.21-15.85,101.71-39.36-6.18-1.79-13.42-2.12-19.75-.89-30.51,5.92-60.01,14.81-85.98,32.8-7.95,4.06-23.01-2.31-31.22-8.98,22.99-15.01,48.68-18.91,75.2-21.83,16.6-1.77,18.84-4.09,19.22-21.01-2.68-46.45-12.21-92.43-17.63-138.68-.31-2.31.94-5.04,2.08-7.28,2.5-4.95,6.93-9.43,7.89-14.6,8.78-46.95,17.05-94.01,25.28-141.07,11.51-54.85,27.07-212.71-58.21-209.47-21.07-.72-41.1,5.17-61.22,10.38-10.23,2.69-60.7,12.99-58.84-5.39.77-16.02,2.79-32.43-.08-48.32-2.4-14.67-19.89-17.15-24.93-2.4-8.61,17.57-6.9,46.13,16.06,58.94,1.87,1.05,3.39,4.09,3.68,6.37,3.27,46.05,15.65,90.91,22.58,136.5,6.07,35.09,10.51,70.36,7.29,106.13-9.4,95.79-14.95,192.06-28.35,287.4-1.84,26.53-26.48,30.76-48.69,29.83-27.16-1.86-54.45-3.07-81.42-6.63-20.02-2.64-39.95-7.41-59.3-13.29-24.81-7.53-28.58-13.89-26.75-39.94,9.29-89.53,24.07-178.49,33.95-267.96,4.93-42.45,15-82.99,33.69-121.42,38.17-80.43,84.51-163.69,77.22-255.61,20.67,4.19,40.22,8.14,59.61,12.07,1.2,60.39,87,16.35,5.66-3.81.56-3.23,1.1-6.29,1.59-9.11,5.39-.08,12.63,1.23,15.86-2.85,1.23-6.16,3.64-13.16,1.84-18.61-6.12-20.68,1.3-41.48,3.17-62.2,1.05-6.96-1.61-11.38-7.9-14.36-6.83-3.76-3.2-13.94-13.11-14.43-11.2.32-44.49-8.97-47.4,5.53-.18.74-1.78,1.67-2.62,1.59-8.68-.91-10.76,5.64-11.9,11.62-2.5,13.13-4.28,26.41-5.93,39.67-.78,17.05-14.66,30.7-8.28,48.7-28.04-5.23-55.19-10.28-82.56-15.38-2.83,5.13,1.95,4.97,4.51,5.47,24.92,4.84,49.87,9.58,74.87,14.05,4.74.85,7.67,2.39,7.89,7.62.28,6.66,1.57,13.36,1.13,19.96-2.97,84-46.74,157.02-79.91,231.97-42.01,90.09-37.2,193.48-54.6,289.95-11.55,126.01-48.09,141.59,101.15,158.43,142.84,12.9,105.15-5.1,125.75-139.89,4.78-84.9,23.9-170.45,12.84-255.38-9.32-56.23-21.69-110.89-27.78-167.8,41.22,9.88,79.64-10.7,120.44-12.46,52.49-4.73,60.78,64.85,63.55,104.05-1.52,84.24-21.07,168.26-37.97,250.34-4.73-25.9,62.68-293.36,22.48-278.96,10.3-18.64,3.79-22.41-15.43-21.95-30.25,4-83.31,6.79-103.34,31.59,16.95,12.56,55.81,3.45,77.17,3.53-27.72,9.38-55.5,15.24-84.13.48-4.22,94.64,48.35,176.76,82.22,261.7,2.56,5.77,11.42,9.22,13.74,15.32,6.94,47.68,15.46,95.29,17.65,143.49.49,10.27-1.53,10.93-11.43,12.31-25.95,3.52-52.56,6.72-75.53,20.25-18.82,12.47,13.17,19.66,22.73,23.34-.26,12.34,11.06,16.59,22.28,17.17,17.31.18,34.71,1.42,51.9.02,37.77-3.29,121.08-26.75,111.89-76.63,17.61-5.99,49.84-9.92,57.69-27.97,1.68-3.64,3.19-5.22,6.58-6.33m-21.5,2.29c-9.92.83-19.84,1.94-29.78,2.25-2.16.07-4.42-2.71-6.64-4.18,2.07-1.81,4.22-5.28,6.2-5.19,10.11.46,20.18,1.84,30.27,2.89-.01,1.41-.02,2.81-.05,4.23Zm-111.02,34.97c-2.16-.18-4.13-2.24-6.2-3.43,7.54-19.22,48.72-8.92,64.07-3.49-19.11,4.35-38.17,8.65-57.87,6.93Zm-61.54,30.93c16.63-3.93,37.47-13.29,54.32-9.31,22.92,15.35-86.89,33.42-96.78,29.74-.26-.94-.54-1.88-.8-2.84,14.39-5.94,28.52-12.69,43.27-17.6ZM260.69,251.59c-45.83-18.57-1.46-102.71-.02-33.61.07,10.77.02,21.54.02,33.61Zm-5.27-121.25c8.02,3.26,16.16,5.74,23.32,9.9,2.83,1.64,3.45,7.05,5.08,10.74-15.44,8.32-32.84-2.61-28.39-20.64Zm10.53-107.3c5.47.55,6.85,3.85,6.13,8.97-1.93,13.94-4.25,27.88-5.3,41.89-2.59,11.36,14.43,42.53-9.06,35.89,2.72-28.83,5.47-57.67,8.22-86.75Zm-14.79-15.67c3.65.92,8.55.99,8.56,6.9-15.15-1.37-30.06-2.71-45.13-4.07,4.53-5.33,21.32-6.67,36.57-2.84Zm-39.16,13.2c.41-1.72,2.63-4.39,3.89-4.32,14.66.72,29.3,1.88,45.31,3.03-2.94,31.18-5.7,60.5-8.59,91.15-20.16-2.89-38.57-5.54-57.8-8.3,6.05-28.24,11.07-54.11,17.18-81.56Zm-27.72,70.01c14.29-18.83,5.25-63.14,21.44-75.33.61.54,1.22,1.08,1.83,1.62-5.95,27.44-11.48,54.98-17.15,82.46-1.22,5,.71,6.81,5.18,7.49,18.59,2.73,36.44,5.9,55.18,8.26-.37,3.04-.68,5.67-1.05,8.76-16.1-3.17-31.63-6.24-47.16-9.28-12.93-.35-26.45-11.19-18.27-23.98Zm148.69,243.06c-4.48.23-9.03-.9-13.54-1.39-.16-.63-.32-1.26-.49-1.88,33.49-15.96,76.98-30.33,113.69-20.56-9.47,13.93-22.3,20.32-38.9,20.05-20.24,1.51-40.49,2.75-60.75,3.78Zm67.85,271.69c-27.48-39.26-39.56-88.52-61.04-131.65-17.65-40.91-29.79-83.44-28.71-128.53,44.51,15.08,84.58-6.23,126.91-19.69,4.4,31.96-1.62,62.89-4.95,94.46-10.59,61.81-18.93,124.28-32.21,185.41Z"/>
  </g>
</svg>