<?xml version="1.0" encoding="UTF-8"?>
<svg xmlns="http://www.w3.org/2000/svg" viewBox="0 0 543.67 833.18">
  <defs>
    <style>
      .cls-1 {
        fill: #8adba6;
      }

      .cls-2 {
        fill: none;
        stroke: #000;
        stroke-linecap: round;
        stroke-miterlimit: 10;
        stroke-width: 6.31px;
      }
    </style>
  </defs>
  <g id="Calque_7" data-name="Calque 7">
    <path class="cls-1" d="m190.19,275.04c136.79,8.55,200.59,35.56,241.05,54.94,68.81,32.96,87.57,79.05-.63,175.03-88.2,95.97-212.49,86.18-267.38,35.73-54.9-50.45-73.5-271.97,26.96-265.69Z"/>
  </g>
  <g id="café">
    <path class="cls-2" d="m319.41,3.15s15.16,10.56-29.8,74.03c-9.57,13.51-7.93,30.93,4.21,42.75,25.11,24.46,66.86,61.25,54.72,77.76-12.97,11.34-26.97,3.54-36.41-22.41-3.91-10.76-19.43-28.42-28.32-37.74-6.74-7.08-16.71,14.35,7.49,49.93,24.2,35.58,41.06,40.89,55.22,56.82,12.45,14,43.16,58.98-16.18,41.28-59.34-17.69-92.94-13.78-62.66,4.32,30.29,18.1,131.53,52.01,94.39,61-37.13,8.99-121.04-15.13-151.09-9.29-12.14,2.36-22.25,10.84-22.57,13.77-.45,4.16,1.65,8.2,5.34,10.85,13.54,9.73,50.67,22.89,105.56,21.97,70.13-1.18,129.47-24.77,129.47-24.77,0,0,28.32-9.28,0-20.56-28.32-11.29-151.25-28.83-240.49-10.33s7.86,132.92,7.86,132.92c0,0,37.81,77.66,99.82,74.8,62.01-2.85,70.1-15.83,86.29-39.42,16.18-23.59,42.71-136.66,59.11-115.51,16.41,21.15,11.91,42.48,0,43.61-11.91,1.13-2.47-50.77,36.64-62.56,39.11-11.8,39.26,20.07,37.76,31.85-1.35,10.62,6.74,41.28-109.24,104.98-5.82,3.2-25.35-2.52-6.74-12.97,15.14-8.5,89.01,4.72,91.71,23.59s8.09,66.05-183.41,76.67c-191.5,10.62-215.78-57.8-194.2-71.95,21.58-14.15,56.64-28.31,74.17-25.95"/>
  </g>
</svg>