<?xml version="1.0" encoding="UTF-8"?>
<svg xmlns="http://www.w3.org/2000/svg" viewBox="0 0 1072.52 580.65">
  <defs>
    <style>
      .cls-1 {
        fill: #f8e99f;
      }

      .cls-2 {
        stroke: #000;
        stroke-miterlimit: 10;
        stroke-width: 2px;
      }
    </style>
  </defs>
  <g id="Calque_2" data-name="Calque 2">
    <path class="cls-1" d="m836.89,230.66c51.98,141.34,28.28,276.68-219.21,273.57-248.75-3.12-423.36-112.69-382.33-252.97S319.59,25.72,507.85,2.32c26.54-3.3,53.86-3.81,79.63,3.36,183.38,50.99,202.04,96.19,249.41,224.98Z"/>
  </g>
  <g id="Calque_1" data-name="Calque 1">
    <path class="cls-2" d="m1064.74,530.82c-95.52-.06-191.18,0-286.71,0,11.56-69.64,25.63-138.71,60.35-201.05,4.32-12.11,27.59-45.32,1.74-45.2-7.92-34.51-48.88-24.44-59.92-51.26-.17-.56-1.28-.83-1.95-1.23-11.34,44.95-215.18,46.11-258.63,40.18,78.42.97,156.9-3.64,232.84-24.95,14.68-3.34,17.36-15.94,16.37-26.84-.31-3.42-1.69-6.35-5.66-7.19,23.57-35.24,4.65-61.12-30.99-74.49-8.08-2.84-13.34.04-15.51,8.34-4.65,14.23-.75,32.29-14.59,42.01-6.02,4.28-10.24,10.12-13.14,16.94-4.01,9.44-11.2,15.25-21.12,17.37-12.42,2.54-24.95,4.9-37.51,6.71,34.39-13.68,108.8-93.71,74.25-128.06-21.29-20.25-46.42-25.49-74.33-18.21-10.79,2.82-14.13,8.26-14.17,19.31,6.28,83.47-88.07,135.1-160.96,134.49-9.6-6.77-20.64-8.13-32.05-8.94-22.9-3.59-69.05-5.78-72.44-34.97,65.23,21.91,132.16-11.31,193.78-31.22,15.11-4.41,77.13-31.56,46.61-49.85-14.05-4.08-28.33-2.49-42.86-5.39,20.06-.41,37.3-5.04,55.82-11.36,8.85-2.17,6.11-10.19,5.47-17.34,8.14,2.69,27.35,3.16,31.8-4.19-1.47-5.15-9.54-6.09-14.05-7.26-8.06-.96-16.41-1.78-21.06,7.51-14.22-7.23-56.42-32.03-53.48-49.49.22-1.36-1.77-3.08-2.73-4.63-2.22,3.36-2.89,6.35-1.23,10.12-2.55,22.3-16.07,42.67-40.23,48.27-14.84,3.07-63.02,18.72-63.47,35.56,4.56,5.21,32.5-7.61,41.17-7.95,37.87-11.16,64.45,29.36,89.99,17.34,33.19,5.37-44.72,39.1-52.79,40.06-46.11,14.51-94.16,26.08-142.68,26.47-11.63-.51-20.35-6.03-27.61-15.2,27.95-12.57,58.83-21.58,81.83-42.63,10.4-11.65-9.09-15.84-17.77-14.29-23.13,2.99-87.22,23.58-69.34,55.66-7.77,5.11-19.96,8.88-18.63,20.24,1.35,14.72,8.28,23.35,22.35,27.72,10.56,3.25,21.48,5.29,31.12,10.91-.16.38-.32.75-.48,1.12-15.39-2.66-30.96-5.61-46.62-5.09-5.37.2-9.65,3.47-11.14,9.05-1.82,19.59,34.11,24.42,47.62,17.56,8.35-3.17,16.76-6.71,17.97-17.45,21.02,3.02,41.86,5.21,62.93,4.52,1.49-.05,3.53,1.51,4.48,2.9,7.13,10.59,17.6,17.21,29.23,21.87-50.16-.6-99.81-3.92-149.84-5.84-23.17-.37-58.03,7.69-64.17,33.68-14.25-1.84-24.46,7.95-22.09,21.67,15.35,72.69,41.55,142.58,62.35,213.91-87.39,1.27-223.16,3.27-309.9,7.05,1.41,1,2.75,1.84,4.57,1.47,0,0,309.02-5.73,309.02-5.73-20.14-73.54-49.5-144.92-63.11-219.93-1.12-10.92,7.05-16.97,18.33-15.2-.53,20.5,2.16,40.64,6.62,60.59,14.09,63.57,31.35,126.92,58.59,186.22,9.93,24.58,39.08,25.78,61.89,28.12,74.5,2.34,338.48,26.41,376.36-38,96.16-6.54,196.26,2.4,292.89-3.15-1.13-.47-2.25-1.35-3.38-1.35ZM637.71,73.93c-5.02,3.86-19.25,4.71-28.09,1.55,3.43-7.49,17.84-8.14,28.09-1.55Zm-64.28,70.39c5.93-4.11,18.35-11.75,12.71-19.81-2.61-3.66-8.15-5.42-12.13-3.04-5.53,3.31-10.91,2.63-16.27.36-55.28-25.52-51.15-24.05-109.93-8.17-.33-.54-.65-1.08-.98-1.61,35.57-38.03,88.79-15.68,104.84-75.36,10.08,12.3,22.35,21.84,35.34,30.49,5.78,5.51,18.98,6.95,20.02,15.4.89,8.01.84,9.08-6.61,11.77-16.88,6.1-34.09,10.53-52.3,9.2-20.15,1.83.11-29.41-14.2-25.23-5.08,2.11-8.25,6.08-8.89,11.55-2.67,14.43,28.13,22.47,39.39,22.28,10.47.77,37.45-.97,30.44,16.37-9.58,15.8-28.59,21.29-44.42,28.33,7.68-4.14,15.52-8.03,22.99-12.53Zm-37.18-63.52v19.79c-11.13-1.68-10.75-16.94,0-19.79Zm-184.24,70.53c16.22-15.78,37.96-25.46,60.11-29.39,5.95-.86,30.48-2.15,20.24,9.01-23.26,19.75-53.86,28.2-80.91,41.74-5.64-7.35-5.72-14.86.56-21.36Zm34.41,89.27c-9.6,17.63-38.24,18.95-53.52,8.15-12.44-7.78-2.91-19.42,9.77-17.52.02-.19.05-.38.08-.57,13.95,2.18,27.92,4.31,41.85,6.68.82.14,2.15,2.59,1.82,3.26Zm65.64-1.1c-21.19-1.15-43.86-1.36-64.44-5.51-5.93-6.9-14.32-8.77-22.43-11.22-5.68-1.72-11.49-3.08-17.01-5.21-10.23-3.93-17.06-14.83-15.84-25.64,1.38-8.39,10.74-11.39,17.13-15.45,10.83,12.64,23.85,18.75,40.38,17.03,38.62-1.61,75.74-12.86,113.42-20.05.15.22.3.44.45.66-47.52,13.15-98.95,34.85-148.13,18.13-2.94-1.4-8.86-2.12-7.74,2.79,7.92,40.64,75.84,30.19,104.44,43.26-.08.4-.16.8-.23,1.21Zm7.54,4.02c73.58-10.78,165.1-52.8,159.5-140.01.14-10.5,2.53-14.61,12.8-17.11,28.99-9.66,87.3,7.62,78.1,45.86-14.6,44.68-48.35,82.09-91.86,99.77-9.03,4.01-19.32,5.25-29.1,7.48-32.68,6.69-65.32,18.33-99.11,13.87-8.67.08-16.29-12.63-18.46-8.18-2.05,7.18,17.02,11.49,22.1,13.04,40.5,6.92,81.47-3.69,118.42-19.95,9.69-4.31,19.96-5.04,30.04-7.06,19.01-3.72,42.23-3.9,50.38-25.11,2.06-4.5,5.01-9.32,8.9-12.13,22.62-11.69,9.02-59.45,29.28-52.63,39.5,14.06,55.57,45.68,22.3,77.94-4.71,4.78-15.38,14.84-15.53,21.66,10.66-2.93,15.32-19.64,26.15-24.3,6.45,11.83.56,25.68-12.57,27.98-35.1,8.33-70.16,16.96-106.19,20.55-34.07,3.4-68.25,3.91-102.45,3.71-29.56.75-64.45,2.36-82.7-25.38Zm139.94-3.43c-29.2,11.49-59.2,18.72-90.85,17.22,31.19-.93,60.86-9.92,90.85-17.22Zm-314.39,39.92c13.11-9.69,27.87-15.65,44.19-15.39,45.24.89,90.42,3.76,135.63,5.52,69.39,5.56,139.09,12.84,208.59,2.67,36.72-5.05,76.31-8.86,106.84-31.95,15.01,19.12,51.74,16.17,56.49,44.35-3.89,3.5-7.64,6.88-10.8,9.72-11.79-13.82-23.36,5.52-30.39,14.18.67-39.65-26.85-29.25-42.77-4.58-5.05-21.99-34.25-33.63-46.92-11.7-16.15-6.36-29.71-2.3-41.26,9.89-14.29-7.75-32.38-4.87-46.91,7.46-14.84-18.01-44.2-15.14-60.46,5.33-22.3-18.9-41.75-.66-54.28,19.31-3.68-17.3-11.32-38.5-31.85-23.71-9.01,5.83-15.11,14.13-18.38,25.36-9.72-27.03-20.33-42.73-39.03-10.03-7.56-27.04-45.51-24.04-47.64,5.07-5.61-26.01-21.62-32.29-31.41-4.12-7.48-14.41-33.51-32.7-41.25-8.68-2.95-10.32-5.1-20.87-17.88-23.06.81-6.87,4.35-11.84,9.49-15.64Zm466.55,34.8c-.36,24.63-3.4,48.71-14.71,72.29-12.33-21.75,4.15-52.22,13.39-72.64.44.12.88.23,1.32.35Zm-43.94,2.86c-5.36,20.38-6.15,42.96-15.25,61.9.27-27.69,3.62-54.8,13.93-80.73,3.54,6.22,2.52,12.71,1.32,18.83Zm-62.56,62.57c-3.67-25.96,4.79-48.85,17.92-71.11,4.44,9.31-8.89,63.56-17.92,71.11Zm-98.47,20.65c-12.29-19.63-1.27-58.62,9.74-77.3,6.63,14.89.26,66.8-9.74,77.3Zm-40.4.87c-6.33-17.6-9.38-35.45-4.29-53.91,2.77,17.87,5.27,35.76,4.29,53.91Zm255.39,144.43c-55.46,44.52-313.34,30.03-391.04,20.5-13.93-2.07-24.92-9.47-30.75-22.3-7.94-17.49-15.59-35.21-21.81-53.36-19.01-62.38-43.47-126.53-42.95-192.38,16.46,1.82,14.8,28.35,19.77,40.79,5,15.46,6.48,32.84,13.84,47.16.43-.17.86-.33,1.29-.5.78-15.35-30.61-78.9-.7-75.84,10.65,1.73,17.33,8.67,21.91,17.73,1.63,3.23,2.47,7.19,2.5,10.83.09,12.84,1.75,25.4,5.13,37.76.5,2.71,1.59,4.89,4.17,6.15,5.26-13.26-2.63-33.08-5.16-47.02-2.99-8.9,9.72-33.26,18.69-19.95,10.81,20.01,9.29,43.42,15.49,64.63.55-.09,1.1-.17,1.64-.26.1-18.08-6.8-36.23-2.87-54.29,2.79-16.4,27.07-21.22,35.6-6.82,4.21,6.28,7.11,12.91,6.95,20.92.28,19.98,3.13,40.61,10.86,59.04.57-.03,1.14-.07,1.71-.1.93-20.5-5.9-41.18-8.6-61.58-1.69-8.88,3.6-21.4,11.84-25.14,10.16-4.77,14.4,10.23,17.81,17.22,6.31,15.23,3.9,32.32,8.36,48.22.24,1.3,1.92,2.33,2.94,3.49,5.24-13.71-7.58-32.45-1.71-46.89,2.8-12.24,28.17-36.89,36.76-18.58,2.14,6.99,8.52,20.29,6.81,26.99-5.68,19.63-5.92,48.24,6.94,64.39.82-1.77,2.44-3.6,2.34-5.31-1.08-17.09-1.82-34.25-4.02-51.22-1.02-7.89-.21-14.31,4.45-20.62,8.57-13.29,29.44-28.27,42.8-13.35,1.7,1.94,1.95,3.45.64,5.93-9.6,18.08-14.55,37.46-14.55,57.9.79,6.16.68,20.89,7.57,22.99,11.56-1.63,16.07-52.91,15.74-63.65.1-5.94-1.94-11.91-2.85-17.89,4.4-20.94,36.2-26.13,52.19-14.07,4.19,2.96,4.56,4.89,2.05,9.46-7.22,13.16-10.59,27.57-11.75,42.27-.67,21-3.72,42.57-.24,63.39.67.04,1.34.07,2.01.1,9.36-30.61,12.5-63.37,16.04-95.23,1.31-6.1-3.09-14.19,3.45-18.06,9.76-8.94,22.37-6.85,34.51-6.85,1.6.02,3.19,1.3,5.22,2.19-12.3,17.31-30.65,59.77-17.52,78.61,2-1.53,5.13-2.67,5.82-4.66,7.37-21.9,16.27-44.24,15.66-67.69.52-16.79,24.6-22.31,37.71-15.67-11.77,25.47-12.93,53.21-15.2,80.58-.63,2.93,1.05,5.21,2.54,7.53,12.93-8.66,15.91-58.55,19.45-75.28.92-4.71-3.11-10.12-1.84-14.93,10.89-19.28,38.1-6.1,40.77,12.44.38,1.66-.38,3.88-1.25,5.48-7.91,14.5-14.78,29.47-17.35,45.87-.66,8.75-1.83,18.72.3,27.26,14.41,20,23.14-54.57,22.81-62.69.87-5.4-2.28-10.5.86-15.73,5.58-7.53,10.6-15.58,19.67-19.47,20.92-7.31,19.9,25,13.16,37.33-10.03,23.22-23.78,47.83-23.82,73.44,15.71-21.28,20.62-49.87,28.8-75,1.02-7.66,18.23-35.78,27.21-28.67,2.73,2.7,2.73,5.5.59,9.09-12.13,22.11-36.33,66.59-31.27,91.08,16.27-9.36,31-55.68,35.11-74.55,1.98-11.41-.62-24.82,13.15-30.11.65,9.99-2.01,18.99-5.55,27.64-9.64,23.58-19.58,47.05-29.52,70.51-20.16,46.75-29.75,96.1-38.99,145.97h7.77c.3.39.61.77.92,1.15-3.65,3.92-6.96,8.24-11.01,11.68Zm-425.61-202.48c.58-.09,1.16-.18,1.74-.27,1.55,10.2,3.1,20.4,4.64,30.6-.58.09-1.17.18-1.76.27-1.54-10.2-3.08-20.4-4.62-30.6Zm79.54,3.19c.5-.09,1-.18,1.51-.26,2.11,12.93,4.22,25.87,6.34,38.8-.46.15-.92.29-1.38.44-2.16-13-4.32-25.99-6.47-38.98Zm200.66-27.85c-.06,32.39-6.9,63.87-13.07,95.46-1.09-32.56-1.64-65.05,13.07-95.46Zm171.17,16.03c-6.23,17.46-12.47,34.92-18.7,52.38-.62-.23-1.25-.45-1.87-.68,6.27-17.44,12.53-34.89,18.8-52.33.59.21,1.18.42,1.77.63Zm35.84-29.68c-2.5,31.42-15.26,58.95-32.1,84.93,4.55-30.64,16.68-58.41,32.1-84.93Zm-55.79,224.94c10.4-65.16,29.45-127.8,57.5-187.45,6.71-17.97,15.89-35.67,16.17-55.27,16.97-.23,2.4,21.61.04,29.82-11.17,25.07-23.38,49.7-33.68,75.11-17.87,42.25-22.98,87.91-31.38,132.64-1.3,6.18-1.73,6.09-8.65,5.15Z"/>
  </g>
</svg>