<?xml version="1.0" encoding="UTF-8"?>
<svg xmlns="http://www.w3.org/2000/svg" viewBox="0 0 1818.82 505.63">
  <defs>
    <style>
      .cls-1 {
        fill: none;
        stroke-width: 4px;
      }

      .cls-1, .cls-2 {
        stroke: #000;
        stroke-miterlimit: 10;
      }

      .cls-3 {
        fill: #8adba6;
      }

      .cls-4 {
        fill: #f8c2a3;
      }
    </style>
  </defs>
  <g id="Calque_1" data-name="Calque 1">
    <g id="Calque_5" data-name="Calque 5">
      <ellipse class="cls-4" cx="919.49" cy="302.72" rx="239.59" ry="183.28" transform="translate(-10.47 571.55) rotate(-34.35)"/>
    </g>
    <path class="cls-2" d="m447.51,334.63c114.5,2.5,70.77.93,189.94,3.56-74.49,225.53,517.7,184.35,566.04,2.53.97-2.6,2.26-3.27,4.88-3.26,22.16.12,44.31.1,66.47.11,3.27.88,4.19-4.39.1-3.96-22.97-.31-46.03.88-68.94-.23,15.36-30.51-25.45-88.5-55.6-55.33,3.85-19.54,4.26-38.25-5.53-56.26-5.84-27.73,4.19-56.96-4.87-84.72,13.93-71.05,30.72-42.81,46.66-69.46,4.37-12.68-13.16-32.85-24.3-20.03-12.14,19.38-6.54-11.51-28.76.77,8.01-15.03-10.97-18.4-21.8-15.6,13.78-27.93-22.23-47.84-32.42-15.83-1.26,9.92,5.28,21.74-2.45,30.27-14.34,16.37-36.95,17.61-55.51,26.84-14.62,5.91-30.15,14.05-46.36,11.22-16.74-4.34-32.57-12.6-50.2-13.25-38.29-.56-78.11,24.09-89.02,62.09-1.73,6.39-5.7,11.28-11.64,14.3-14.93,8.91-33.18,12.38-45.25,25.53-3.09,3.27-6.63,6.23-10.5,8.55-.36-.22-.72-.45-1.08-.67,2.15-11.82,11.17-21.29,12.4-33.21-.34-5.76-8.56-7.52-12.12-3.31-29.64,27.88-51.64,61.76-62.86,101-3.66,9.05-4.05,18.31-2.73,27.7.16,7.35,8,8.18,4.99,13.1-23.88,43.83,1.13,116.37,59.13,86.99,28.72-9.1,4.26,45.39,70.79,50.91,29.73-.29,4.74-42.35,7.24-59.1,1.71-46.74,22.29-90.02,29.4-135.89,22.22-120.13-124.79,24.4-156.93,46.84-.19-.17-.38-.35-.57-.53,29.26-49.49,37.79-78.68,93.68-103.75,63.26-26.95,131.07-73.22,202.37-56.21,60.5,20.72,8.58,98.09-8.82,134.41-18.3,25.8-12.52,3.33-16.84,41.9-.29.02-.58.05-.87.07-7.54-30.47-25.1,2.2-34.36,13.21-6.43,8.89-12.58,17.96-17.3,27.95-3.87,7.59-8.37,16.52-17.14,19.22-8.24-25.53,4.78-55.9,7.17-82.1-.13-5.61,2.44-17.65-5.32-18.67-2.27-.21-3.51,1.43-4.45,3.37-51.99,87.68-88.2,265.28,59.62,125.61,10.82-9.49,21.59-19.04,32.41-28.54,1.67-1.6,3.44-2.98,5.87-3.05,1.11,3.25-.95,6.01-2.19,8.89-7.6,20.15,24.37,21.19,37.26,19.51,44.69-2.96,69.26-44,92.04-77.25-.78,10.01-6.28,19.56-8.88,29.35-1.17,3.39-.6,4.72,3.05,5.26,21.1,2.16,42.44,1.26,63.63,2.1,3.4.07,3.63.31,2.3,3.58-44.21,174.91-639.5,216.9-555.23-3.12,4.8-1.16,57.97,1.6,50.67-6.45-3.92-6.28-1.65-13.82-1.52-20.73-.16-20.87-25.83-4.85-34.14,1.98-7.23,5.5-14.11,11.42-18.61,19.6-.48.86-2.18,1.47-3.32,1.47-116.67-.23-74.14-1.23-189.67-1.23m198.11-1.29c7.97-9.92,17.43-18.08,28.93-23.65,4.05-1.43,14.92-6.97,14.39,1.13-.54,7.72-1.72,14.8,1.05,22.55-15.22,2.64-30.22,2.13-45.85,2.39.74-1.23,1.05-1.88,1.49-2.42ZM1133.77,53.53c16.9-15.99,17.18,19.86,31.27-2.73,2.8-3.48,4.78-4.01,8.91-2.2,5.79,2.54,8.3,7.24,8.89,13.34,1.29,9.53-7.35,13.27-14.81,15.92-20.84,9.28-26.71,34.39-31.27,54.62-.25-.03-.5-.05-.74-.08-1.33-7.88-3.53-15.66-6.6-23.02-1.79-4.77-4.59-3.98-9.21-3.64-.52-18.4.25-38.01,13.55-52.22Zm-3.75,191.71c3.94,41.59-23.68,76.83-55.85,99.94-35.85,26.4-60.31-14.88-60.43-47.91-2.4-31.23,8.56-61.48,26.96-86.42,6.73-14.11,32.51-24.16,27.42-40.16,26.34,13.93,46.48-16.74,50-39.53,1.71-3.78-.36-27.51,7.35-20.51,5.04,8.31,4.69,18.67,8.28,27.53,1.35,2.7,1.26,5.34.94,8.2-1.56,13.87-2.98,27.76-4.47,41.65-2.83,18.95-.59,38.17-.21,57.23Zm-16.8-130.83c-5.2,6.54-24.61,51.39-32.1,46.69-5.7-2.85-13.44-5.25-16.37,2.7-47.23-53.67,23.71-87.12,63.47-111.5.12.1.24.18.35.28-6.43,9.84-11.03,20.3-11.79,32.08-1.75,9.83,1.72,20.8-3.57,29.74Zm1.93,10.74c-2.49,20.77-19.32,55.8-44.87,41.72-2.09-1.66-.71-4.9,1.89-4.67,4.98.13,10.51,6.38,14.74,2.01,12.56-12.87,20.19-30.09,27.51-46.27.26-.04.52-.07.78-.1,0,2.44.32,4.93-.05,7.31Zm-397.67,155.48c45.38-31.25,82.73-78.18,137.79-93.62,51.82-1.85-35.87,166.69-11.17,202.72,2.51,11.96,10.36,34.99-10.55,30.94-10.43-1.56-20.56-4.02-29.15-10.71-21.84-13.38-11.32-45.44-37.3-40.24-13.54,3.78-29.23,13.53-42.05,2.94-29.24-18.47-30.45-69.06-7.56-92.02Zm393.08,53.94c-18.43,26.42-50.29,44.68-83.13,38.99-24.42-5.47-11.9-8.99-11.19-23.64-1.55-7.91-9.46-3.08-13.05.52-11.88,10.3-23.7,20.68-35.58,30.97-138.05,132.01-97.2-48.47-48.94-125.19,5.12,7.25-2.21,29.37-2.62,39.15-2.46,18.86-9.68,38.2-4.26,57.16,7.87,15.91,23.53-11.93,27.05-19.36,9.23-17.73,20.67-34.66,35.37-48.21,5.19-5.53,6.21,8.98,9.4,11.37,11.39,10.49,3.45-29.07,14.71-32.77,5.37-3.82,8.42-9.88,11.3-15.65,121.06-210.38-110.31-134.49-215.23-71.74-44.26,19.17-61.05,65.25-84.87,103.27-12.81-14.47,6.02-46.57,10.57-62.88-.96-11.26,72.63-104.49,51.1-54.77-3.9,8.38-16.57,35.06,3.58,20.9,8.1-6.86,14.93-14.99,25.33-18.56,13.99-7.67,34.92-11.12,39.59-28.56,9.56-34.58,43.53-56.07,77.86-59.4,42.32-.47,53.21,27.2,99.26,4.08,112.06-36.34,42.67-45.26,75.87-74.42,17.06-7.22,23.1,18.29,13.37,28.87-1.56,1.94-3.21,3.55-2.89,6.25.96-.1,2.17.15,2.87-.33,4.71-3.32,9.8-5.39,15.63-4.7,4.6.41,13.63,3.41,8.7,9.14-30.13,24.26-80.62,38-85.17,82.89-4.33,26.22,34.83,42.07,12.5,58.77-76.02,52.42-57.79,234.06,36.71,146.79,37.23-33.58,43.37-64.08,38.29-112.2-.62-24.7,3.79-49.18,5.49-73.79.34.03.7.05,1.04.07,2.31,22.91-1.79,45.99.1,68.91,22.94,49.86,1.69,78.87-28.75,118.08Zm91.73-2.49c-3.76,3.45-21.27.59-27.41,1.19-13.7-.59-27.23-.51-40.92-1.73,8.66-18.98,8.93-52.9,32.31-59.04,26.38-2.77,46.79,37.15,36.02,59.59Z"/>
  </g>
  <g id="Calque_2" data-name="Calque 2">
    <g id="Calque_4" data-name="Calque 4">
      <ellipse class="cls-3" cx="353.51" cy="183.63" rx="260.5" ry="92.5"/>
    </g>
    <g>
      <path class="cls-2" d="m518.85,332.09c-1.2-3.38-15.98-.1-19.97-.79-20.63.03-42.25,3.15-62.38-1.74,35.33-12.99,77.19-14.95,103.18-45.6,6.26-5.84,11.09-13.3,18.06-18.33,6.42-4.61,13.44-8.54,18.96-14.26,1.75-1.56.45-4.54-2.04-3.95-6.67.79-10.78,7.22-15.64,11.24-53.02,49.72-161.49,42-230.51,43.06-39.19-1.71-80.68-.91-117.01-17.58-24.38-13.07-49.3-26.17-70.23-44.47.1-.16.19-.31.29-.47,84.08,35.29,238.25,41.47,329.26,29.61,33.64-4.83,158.57-28.62,124.82-80.88-6.53-8.39-16.48-11.46-26.45-13.93,12.86-27.2-9.85-39.58-33.52-28.47,27.26-39.78,6.23-54.65-23.94-18.32,4.52-31.05-15.07-22.13-25.73-2.74-4.63-38.76-18.27-12.73-19.62,9.16-13.83-8.56,1.21-26.31-6.57-38.22-6.45-8.44-13.29,15.5-19.67,15.36,0-6.95,2.16-32.25-10.29-19.16-3.92,5.14-7.53,10.53-11.03,15.98-1.08,1.58-1.81,1.75-3.44.75-9.45-6.78-14.46-24.08-25.77-7.93-3.29-1.73-8.22-9.75-11.69-5.61-6.46,8.67-11.54,18.29-16.67,27.79-3.55,4.4-1.84,13.72-5.79,16.26-3.8,1.6-6.29,5.62-8.6,8.85-5.69,9.89-10.88,20.08-16.72,29.89-2.21,3.81-7.46,3.02-11.24,3.6-10.63.14-21.48.26-31.96-1.45,47.71-.1,79.65-39.73,39.24-77.32-18.48-19.15-47.83-24.42-69.29-6.91.37-10.37-.48-21.74-7.85-29.74-11.89-12.32-12.17,4.38-12.36,13.2-1.85-2.05-2.06-4.94-3.5-7.25-1.71-4.22-9.58-8.94-11.88-2.83-1.57,7.17.92,14.7,1.05,21.97.46,3.81-4.46,2.46-6.85,2.91-13.85.24-16.64,12.94-9.96,23.29-19.52,4.19-33.12,19.21-40.04,37.38-9.73-8.73-29.18-20.69-20.76,3.32-12.21-4.25-39.76-17.58-26.26,7.93-6.63-.06-13.05-1.95-19.66-.94-8.92,1.87.11,10.5,4.57,12.24,10.05,5.29,21.47,5.65,31.79,10.14-6.25,3.67-21.82,6.46-9.34,14.37,7.51,3.22,23.97,21.03,30.04,9.74,3.41-8,1.75-17.2,3.26-25.65,1.43-8.77,3.94-17.61,7.85-25.51,2.52,3.01,4.43,5.95,8.66,5.78-12.81,23.66-6.91,58.6,21.41,67.21,12.23,3.58,24.99,7.19,37.84,6.14,8.23-1.27,1.11-11.2.38-16.06-8-22.22-15.75-44.79-27.06-65.58-3.65-5.59-20.24,3.82-26.48,4.08,5.29-9.95,11.42-21,21.13-27.19,20,32.03,33.44,67.73,49.95,101.62,2.85,6.4,11.03,4.58,16.72,5.42,9.13-1.19,24.62,3.34,30.95-4.02,8.7-13.9,10.16-13.45-6.43-15.14-14.1-1.97-23.68-1.38-18.72-19.12-.03-.49-.48-1.13-.92-1.37-1.33-.75-2.02,1.01-2.39,2.05-3.3,8.75-6.45,17.71-11.62,25.55.08-5.24,9.67-40.41,14.59-40.26,44.65-1.72,47.11,11.05,32.33,49.68-.91,2.11-.61,2.75,1.6,3.14,6.22,1.1,12.46,2.13,18.69,3.14,11.21,2.77,22.67,1.79,34.29,2.34,14.35-.07,29.23-1.02,42.54-6.81,3.93-1.19,15.85-10.84,5.84-11.15-5.6.82-10.91,3.05-16.5,3.97-.08-.14-.16-.29-.24-.43,14.37-15.15,13.49-28.9-6.34-9.85-2.43-6.73-6.84-26.98-17.03-20.64-6.23,6.97-6.66,17.01-11.49,24.8-5.82-4.59-10.76-10.24-18.64-10.85-5.37-.69-7.83,2.2-6.27,7.35,1.53,6.47,7.89,12.83,6.15,19.54-6.42.57-18.41-6.48-18.46-13.38-.28-16.28,8.21-34.66,24.91-39.38,19.59-5.41,44.81-5.66,58.56,11.65,5.33,6.62,9.81,13.77,13.68,21.3,3.2,4.21,4.95,15.21,9.72,16.64,3.08.37,6.2-1.11,9.07.76,4.31,1.1,9.11,1.1,13.57,1.46,9.42-.28,20.49,1.4,28.91-3.34,3.29-2.87,7.72-13.36.33-13.35-14.61,3.42-28.79,7.83-43.55,10.69-3.56-12.8.13-26.71,1.73-39.63,10.67-2.32,21.68-3.05,32.45-4.96,7.75-.66,13.87,25.84,16.75,32.42.35,2.89,2.78,3.36,4.09.62,7.07-9.56,14.14-19.11,21.2-28.68,2.71-5.35,11.23-10.65,8.48-17.14-1.19-1.99-1.15-3.81-.53-5.84,1.1-10.5-14.21-18.39-22.25-22.63-11.56-3.83-21.47,7.05-29.68,13.77-.05-8.61-.17-16.63.44-24.96,14.8,9.18,31.95,12.42,48.26,5.21-9.83,27.68,29.6,26.67,46.7,31.98-1.14,1.46-1.49,4.05-3.62,3.83-11.7-.19-30.01,12.74-37.12,21.96-2.33,10.7,20.28.67,24.02-2.67,5.66-3.98,10.49-8.82,14.59-14.36.83-1.12,1.55-1.56,3.02-1.19,10.73,2.11,34.94,15.17,18.97,25.95-64.91,36.87-142.36,41.63-215.5,42.42-56.15.32-112.91.06-167.86-12.88-26.3-6.19-53.58-9.44-78.73-19.63-5.65-2.83-12.9-5.35-14.15-12.37-.9-3.74.02-5.8,3.46-7.43,2.67-1.62,10.02-3.14,8.66-7.45-1.11-1.78-3.22-.9-4.78-.36-9.77,4.14-24.86,13.39-17.73,25.61,28.06,46.74,70.19,88.73,121.62,108.54-14.37.67-27.5,1.08-41.61,1.49-2.1.53-6.03-.86-6.75,1.72-.06.84.61,1.52,1.59,1.59,16.92-.85,33.93-1.17,50.88-1.82,13.78.06,26.96,6.05,40.73,7.32,13.17,1.98,26.36,3.82,39.64,4.85,27.14,2.31,54.47,3.32,81.67,1.37,12.91-1.51,26.4-1.55,38.47-6.88,13.11-6.36-4.14-9.71-10.33-9.92-38.36-3.03-76.89-2.15-115.33-1.55-22.32.31-44.61.89-66.92,1.5-17.28-3.03-33.05-11.64-47.69-21.06-22.36-15.13-42.08-33.87-59.42-54.5-8.16-9.79-15.98-19.82-22.25-30.96-4.24-6.63-4.27-12.32,2.69-17.29-1.53,15.07,14.47,20.19,26.04,24.05,25.76,8.22,52.52,12.53,78.94,18.03,70.18,15.03,142.81,11.64,214.11,9.27,27.95-1.49,55.96-4.08,83.06-11.42,28.34-7.44,135.57-34.44,58.64-61.45.78-1.33,1.51-2.55,2.42-4.14,15,2.7,33.23,12.42,30.55,30.16-7.98,40.57-106.14,55.85-141.66,60.62-51.82,5.87-104.24,4.02-156.17.41-47.57-4.7-96.17-8.85-141.36-25.36-45.75-19.4-9.25,9.79,7.11,19.11,19.58,11.84,39.11,24.68,60.97,31.88,46.25,12.36,94.77,11.49,142.28,11.07,59.05-1.24,122.04-.52,174.92-30.31-20.13,25.06-44.36,34.99-74.81,42.21-20.88,4.89-63.91,16.55-11.97,18.41,12.64,0,25.28-.3,37.92-.54,4.66-.88,21.72,1.14,23.34-2.38M159.96,169.64c-8.71,16.7,1.42,53.39-17.15,39.12-6.12-4.54-13.71-7.19-18.72-12.97,40.32-16.33-20.48-12.58-26-27.55,4.87-3.79,24.44,5.52,23.47-2.95-1.14-3.8-4.16-7.18-3.57-11.35,6.75-3.19,24.66,8.99,29.91,7.24,1.17-1.12.47-2.55,0-3.85-8.48-20.44,9.34-6.04,16.27.3-1.45,4.14-2.86,8.07-4.22,12.03Zm180.5,62.05c-1.04-3.33-8.37-13.36-.48-12.06,4.87.66,8.87,3.01,12.36,6.38,2.54,2.63,6.83,6.9,9.49,2.07,3.63-3.67,7.28-29.09,14.01-22.5,5.84,3.07,7.08,24.84,12.4,20.76,4.02-3.2,7.46-7.05,12.09-9.44-.78,6.18-7.02,10.39-10.01,15.74-4.08,10.04,15.76-1.21,19.65.54-18.36,14.14-44.6,11.24-66.53,10.62.63-4.54-1.3-8.29-2.99-12.1Zm140.5-2.89c.09,3.11-1.83,8.29-5.28,9-10.9,2.21-22.23,2.26-33.23.87,12.93-3.32,25.62-6.57,38.51-9.87Zm-90.4-123.35c6.84,6.33,13.31,11.9,20.21,17.94,13.96,12.49,33.02,16.05,48.64,25.68,5.43,4.93-13.67,23.42-19.09,25.1-26.85,13.78-61.36-46.46-49.75-68.71Zm-26.93,19.16c5.17-9.68,10.2-19.11,16.68-28.03,2.72,2.28,5.19,4.37,7.54,6.34-5.15,13.98-1.87,28.92,4.75,41.99-10.7-3.57-21.17-6.57-32.44-6.93,1.06-4.66,1.31-9.23,3.47-13.36Zm-4.36,17.59c.06-.29.21-.55.5-1.31,11,.75,21.75,3.04,31.99,7.14,4.39,1.78,4.07,1.11,3.74,6.17-.39,5.93-1.19,11.83-2.76,17.57-1.48,5.38-1.21,5.18-6.51,5.32-10.37.13-21,.13-31.01-2.9-4.32.63,4.07-27.66,4.06-31.99Zm-159.93,17.64c2.42-.28,5.92-2.66,7.07.58,11.99,24.27,21.71,49.52,29.6,75.45-7.9,1.41-15.59-.21-23.29-1.79-16.14-2.91-32.53-9.36-37.86-26.29-5.57-13.83-2.46-28.26,4.01-41.2.31-.72.7-1.24,1.56-1.48,6.3-1.73,12.59-3.52,18.89-5.27Zm312.39,28.58c-5.01,9.24-22.21-1.44-27.85-6.23-5.49-5.95,6.29-12.66,10.61-15.73,7.2-3.46,16.81,6.38,22.21,10.77-1.24,4.09-2.59,7.87-4.97,11.19Zm7.19-6.52c-.17.57-.35,1.14-.52,1.72-.15-.05-.31-.1-.47-.14.18-.56.36-1.13.54-1.71.15.05.3.09.45.13Zm-43.64-19.06c5.9-4.76,13.81-11.86,21.9-9.45,6.29,3.1,22.85,11.9,20.22,20.13-12.81-9.99-20.65-16.98-33.63-2.52-15.71,13.34,14.89,25.24,25.84,24.12,0-.02,0-.03,0-.05.02,0,.04.03.07.05h-.06c-6.11,8.91-12.68,18.19-19.64,26.4-15.8-42.98-9.9-32.68-52.05-27.95-5.54.76-6.61,37.97-4.64,43.44-1.59.1-3.08.19-4.72.29-17.66-41.21-36.51-62.47-84.04-49.23-17.81,3.25-37.63,42.55-18.53,53.29-1.95.36-12.16-1.22-15.33-2.34,7.83-23.27,18.25-48.64-15.98-52.32-6.82-.22-19.46-3.35-24.47,1.73-6.22,12.45-10.05,26.01-13.11,39.57-2.27,20.8,12.41-7.62,14-12.98,1.72,4.22,4.03,7.55,8.76,8.17,7.89,1.29,15.35,2.39,23.35,3.48-2.33,4.74-4.5,11.31-10.46,11.63-8.44-.55-32.09,3.08-37.1-3.41-10.89-23.91-22.02-47.7-33.46-71.34-3.75-4.99-15.62-38.82-22.61-30.82-21.02,16.46-18.86,41.37-31.65,24.09,6.46-18.2,19.7-33.37,39.31-36.81,35.85,50.65,22.7-5.49,3.02-3.34-3.3-.48-3.66-5.93-5.02-8.52-2.88-9.91,8.52-11.66,15.82-11.65,9.18-2.28.7-18.61,2.77-25.49.27-1.95,1.06-2.33,2.84-1.56,5.08,2.5,5.38,9.2,7.78,13.73,7.81,6.54,3.91-15.85,7.16-18.61,12.04,4.84,12.95,21.38,11.93,32.61-11.36,14.39-22.73,32.89-16.63,52.14,5.58,6.16,7.68-13.55,9.24-16.74,2.8-11.25,5.98-22.61,10.81-32.98,26.4-24.15,62.02-7.82,78.86,19.15,15,21.77-2.03,49.88-26.6,54.43-14.17,3.48-31.32,6.43-44.15-2.2,1.48-1.96,24.87-12.77,25.45-10,5.62,9.93,21.12,8.63,16.72-5.01,7.42-.02,25.65-10.57,13.02-16.45-2.89-1.12-5.64-1.75-8.53-3.02,3.2-5.16,9.45-9.23,8.05-16.04-3.1-9.99-12.68,3.13-16.17,6.82-3.73-7.55-4.02-17.7-11.94-22.78-12.61-6.17-6.07,21.94-7.15,28.17-5.88-2.23-10.42-6.3-16.68-7.42-4.87-1.33-11.82,3.15-9.01,8.61,5.24,8.52,15.43,12.38,23.29,18.2-12.5,1.31-38.94-2.33-22.79,18.35,1.95,2.46-.56,5.13,3.6,7.19,19.74,7.66,42.39,7.61,63.28,5.88,12.05-2.93,18.16-33.61,29.47-41.41.13.09.27.17.39.26-1.65,9.43-3.53,18.81-5.26,28.22-.75,4.02-.04,5.5,3.85,6.68,10.69,3.06,22.01,3.23,33.06,2.89,10.46.92,9.08-17.85,10.88-25.15,11.1,16.3,31.15,34.77,49.85,17.56,4.96-4.19,20.39-19.47,13.17-25.46-8.13-5.67-17.62-8.95-26.67-12.85-17.06-6.38-29.67-19.63-42.98-31.49,1.72-2.72,5.56-8.1,8.74-5.2,5.17,3.78,12.14,18.6,19.44,13.11,5.67-6.22,7.93-15.13,15.33-19.73,3.42,6.29.79,13.81,1.74,20.57,4.77,11.31,15.24-12.92,19.77-14.67,6.78,10.93-6.06,26.9,4.12,36.34,1.57,1.84,4.87,2.87,5.16,5.43-.54,10.22.37,20.66-1.04,30.76-.65,1.18.05,2.35,1,2.99.74.4,1.62-.05,1.84-.86,1.09-3.97,4.4-6.1,7.17-8.63Zm-264.26-42.89c8.09-1.56,14.17,11.13,15.2,17.41-5.67-5.2-10.59-10.95-15.2-17.41Zm40.11-14.39c-5.89,12.61-6.85,27.1-12.15,39.89-2.42-14.34,3.34-28.74,12.15-39.89Zm35.62,45.93c-8.08-5.94-17.87-10-24.49-17.75-4.13-8.49,10.32-5.2,13.74-1.98,20.14,14.13,6.93-16.06,12.2-25.24,10.35.67,10.47,29.98,16.26,24.5,3.78-3.58,6.75-9.54,11.88-11.04,2.44,5.8-3.93,10.13-6.87,14.3-5.48,9.9,24.37,4.7,6.45,15.81-3.34,3.28-14.92,1.14-12.26,5.82,5.21,12.03-7.7,9.85-11.75,2.13-3.19-3.8-25.51,8.16-29.64,10.97-21.12-23.19,32.13-6.59,24.48-17.52Zm239.52,52.32c8.13-8.82,20.97-18.74,33.12-20.25-4.67,9.99-23.76,21.78-33.12,20.25Zm-271.15,124.92c36.09-.79,72.18-1.44,108.28-1.45,20.57.62,41.62-.28,61.74,4.4-36.39,17.82-142.02,7.53-183.01-2.24,0-.13,0-.27,0-.4,4.34-.1,8.66-.22,13-.31Zm310.76-155.19c-13.77-3.9-53.33-3.78-45.94-26,1.45-6.69,9.15-7.46,13.19-12.15,1.98-1.4,2.3-4.93-.82-4.68-4.41.95-7.98,4.29-10.68,7.76-14.43,11.37-35.86,7.99-50.51-1.52-4.87-1.39,5.88-47.45,10.7-20.36.96,5.38,2.06,11.38.22,16.67-.53,2.05-3.08,5.64-.5,7.02,2.48.57,3.02-3.5,3.79-5.17,2.23-9.42,7.67-16.77,14.74-23.05,15.21-10.9,8.12,22.49,4.08,28.44.89.66,1.52.91,2.55,1.34,7.55-13.39,17.48-28.8,33.54-32.22,16.13,1.19-8.99,38.43-15.02,43.5.8.55,1.54,1.08,2.4,1.67,18.5-17.6,54.43-12.84,38.23,18.74Zm4.29,78.95c.11.13.22.28.33.41-.97.78-1.94,1.55-2.92,2.34-.11-.15-.23-.31-.33-.46l2.92-2.29Z"/>
      <path class="cls-2" d="m509.68,195.13h-.06s0-.03,0-.05c.02,0,.04.03.07.05Z"/>
      <path class="cls-2" d="m517.94,183.48c.18-.57.36-1.14.54-1.71.15.04.3.09.45.13-.18.57-.35,1.14-.53,1.72-.15-.05-.31-.09-.46-.14Z"/>
    </g>
    <line class="cls-1" x1="178.01" y1="330.13" x2=".01" y2="329.13"/>
  </g>
</svg>