<?xml version="1.0" encoding="UTF-8"?>
<svg xmlns="http://www.w3.org/2000/svg" viewBox="0 0 1107.23 487.2">
  <defs>
    <style>
      .cls-1 {
        fill: #8adba6;
      }
    </style>
  </defs>
  <g id="Calque_2" data-name="Calque 2">
    <ellipse class="cls-1" cx="553.61" cy="246.51" rx="452.14" ry="172.54"/>
  </g>
  <g id="Calque_1" data-name="Calque 1">
    <g>
      <path d="m966.72,217.98c-11.25-14.45-28.4-19.74-45.58-23.99,22.16-46.87-16.97-68.2-57.76-49.06,46.98-68.55,10.74-94.17-41.26-31.57,7.8-53.5-25.97-38.13-44.33-4.71-7.98-66.78-31.49-21.94-33.8,15.78-23.83-14.75,2.09-45.33-11.32-65.86-11.11-14.55-22.9,26.71-33.9,26.47,0-11.98,3.73-55.57-17.72-33.01-6.75,8.87-12.98,18.14-19,27.53-1.86,2.73-3.12,3.02-5.93,1.3-16.29-11.69-24.92-41.49-44.41-13.66-5.67-2.98-14.16-16.81-20.15-9.66-11.13,14.95-19.88,31.51-28.73,47.89-6.11,7.58-3.17,23.63-9.98,28.02-6.56,2.75-10.84,9.68-14.82,15.26-9.8,17.04-18.75,34.6-28.81,51.51-3.8,6.56-12.85,5.21-19.36,6.21-18.31.24-37.02.45-55.07-2.5,82.22-.18,137.25-68.46,67.62-133.23-31.84-32.99-82.42-42.08-119.4-11.91.64-17.87-.82-37.47-13.53-51.24-20.49-21.23-20.98,7.55-21.3,22.75-3.18-3.54-3.54-8.5-6.03-12.5-2.95-7.28-16.5-15.4-20.46-4.88-2.71,12.35,1.59,25.32,1.81,37.86.8,6.57-7.68,4.24-11.81,5.01-23.87.41-28.67,22.29-17.16,40.12-33.64,7.21-57.07,33.11-69,64.41-16.77-15.04-50.28-35.66-35.77,5.72-21.04-7.33-68.51-30.3-45.25,13.66-11.43-.1-22.48-3.36-33.88-1.63-15.37,3.22.18,18.1,7.87,21.09,17.31,9.11,37,9.73,54.77,17.48-10.77,6.32-37.59,11.13-16.09,24.77,12.94,5.54,41.3,36.23,51.77,16.79,5.87-13.78,3.02-29.65,5.62-44.2,2.46-15.11,6.79-30.34,13.53-43.95,4.34,5.19,7.63,10.25,14.93,9.95-22.08,40.77-11.9,100.97,36.89,115.8,21.07,6.18,43.07,12.38,65.2,10.58,14.19-2.19,1.91-19.3.66-27.67-13.79-38.3-27.13-77.18-46.63-113-6.28-9.63-34.88,6.59-45.63,7.03,9.12-17.15,19.67-36.19,36.41-46.86,34.47,55.18,57.62,116.71,86.06,175.11,4.91,11.02,19.01,7.9,28.81,9.33,15.73-2.05,42.42,5.76,53.33-6.93,14.98-23.95,17.51-23.17-11.09-26.08-24.3-3.39-40.81-2.39-32.25-32.95-.05-.84-.82-1.95-1.58-2.36-2.29-1.29-3.48,1.75-4.12,3.53-5.68,15.07-11.11,30.52-20.02,44.03.14-9.03,16.67-69.64,25.14-69.37,76.94-2.96,81.18,19.05,55.71,85.6-1.56,3.63-1.05,4.75,2.76,5.4,10.72,1.89,21.47,3.66,32.21,5.4,19.31,4.77,39.06,3.08,59.09,4.04,24.73-.13,50.37-1.75,73.3-11.74,6.78-2.05,27.31-18.67,10.07-19.22-9.67,1.42-18.82,5.26-28.45,6.84l-.38-.75c24.75-26.1,23.25-49.78-10.93-16.96-4.19-11.6-11.79-46.49-29.35-35.56-10.73,12-11.47,29.3-19.79,42.74-10.04-7.91-18.54-17.64-32.13-18.69-9.25-1.18-13.5,3.79-10.81,12.66,2.63,11.14,13.6,22.11,10.59,33.67-11.07.97-31.72-11.16-31.81-23.06-.48-28.06,14.15-59.72,42.92-67.86,33.76-9.32,77.21-9.74,100.91,20.07,9.18,11.42,16.9,23.73,23.57,36.71,5.51,7.26,8.52,26.21,16.75,28.68,5.3.64,10.68-1.91,15.62,1.31,7.43,1.9,15.7,1.9,23.39,2.51,16.24-.48,35.3,2.42,49.81-5.75,5.67-4.94,13.3-23.02.57-23-25.17,5.89-49.61,13.5-75.04,18.43-6.13-22.06.22-46.02,2.97-68.29,18.39-4,37.35-5.26,55.92-8.54,13.35-1.14,23.91,44.52,28.86,55.86.6,4.98,4.8,5.79,7.04,1.07,12.19-16.47,24.36-32.93,36.53-49.42,4.66-9.21,19.36-18.35,14.62-29.53-2.06-3.43-1.99-6.57-.92-10.07,1.9-18.09-24.49-31.68-38.33-38.99-19.92-6.6-36.99,12.16-51.15,23.73-.08-14.83-.3-28.66.76-43.01,25.51,15.82,55.05,21.4,83.15,8.98-16.93,47.69,51,45.96,80.48,55.1-1.96,2.51-2.56,6.98-6.24,6.6-20.17-.33-51.71,21.96-63.96,37.84-4.01,18.43,34.94,1.15,41.39-4.6,9.76-6.87,18.07-15.19,25.15-24.75,1.43-1.92,2.68-2.69,5.21-2.05,18.49,3.63,60.21,26.14,32.68,44.72-111.85,63.53-245.29,71.73-371.32,73.1-96.76.55-194.55.11-289.24-22.19-45.31-10.67-92.32-16.26-135.66-33.83-9.74-4.88-22.23-9.22-24.39-21.32-1.54-6.44.03-9.99,5.96-12.79,4.6-2.79,17.27-5.41,14.93-12.84-1.91-3.06-5.55-1.55-8.23-.62-16.84,7.14-42.83,23.07-30.55,44.13,48.36,80.53,120.94,152.88,209.57,187.02-24.76,1.15-282.07,9.74-306.39,10.44-3.62.92-10.4-1.49-11.63,2.96-.1,1.45,1.05,2.61,2.74,2.74,29.16-1.46,293.15-9.89,322.35-11.01,23.74.11,46.45,10.43,70.18,12.61,22.69,3.41,45.43,6.59,68.31,8.36,46.76,3.99,93.86,5.72,140.72,2.37,22.25-2.6,45.49-2.67,66.29-11.86,22.59-10.96-7.13-16.73-17.8-17.1-66.09-5.22-132.5-3.7-198.73-2.66-38.46.54-76.88,1.54-115.31,2.58-29.77-5.22-56.95-20.06-82.17-36.3-38.52-26.08-72.51-58.37-102.38-93.91-14.06-16.87-27.54-34.14-38.33-53.34-7.31-11.43-7.36-21.24,4.63-29.79-2.64,25.96,24.93,34.79,44.87,41.44,44.39,14.16,90.5,21.58,136.02,31.07,120.93,25.89,246.08,20.05,368.93,15.97,48.16-2.57,96.43-7.04,143.12-19.68,48.82-12.81,233.6-59.35,101.04-105.88,1.35-2.3,2.6-4.4,4.17-7.13,25.84,4.65,57.26,21.4,52.64,51.97-13.75,69.91-182.88,96.24-244.09,104.46-89.29,10.11-179.62,6.92-269.09.7-81.97-8.1-165.71-15.24-243.58-43.7-78.84-33.42-15.95,16.88,12.25,32.93,33.74,20.4,67.39,42.52,105.06,54.94,79.69,21.29,163.29,19.79,245.16,19.07,101.75-2.14,210.28-.89,301.41-52.23-34.68,43.17-76.44,60.28-128.91,72.74-35.97,8.43-110.12,28.52-20.63,31.72,21.78.01,43.56-.51,65.33-.94,8.03-1.52,310.25,5.84,313.04-.23-2.07-5.82-300.35-4.05-307.22-5.24-35.54.05-72.8,5.43-107.49-3,60.88-22.38,133.01-25.77,177.78-78.57,10.79-10.07,19.12-22.92,31.12-31.58,11.06-7.94,23.16-14.72,32.67-24.57,3.01-2.69.77-7.83-3.52-6.8-11.5,1.36-18.58,12.44-26.95,19.36-91.35,85.67-278.26,72.36-397.19,74.19-67.53-2.95-139.03-1.57-201.62-30.29-42.01-22.52-84.95-45.09-121.01-76.62.16-.28.33-.54.49-.8,144.88,60.82,410.53,71.46,567.34,51.02,57.97-8.33,273.22-49.31,215.08-139.36Zm-750.71-31.52c-15,28.78,2.45,92-29.54,67.4-10.55-7.82-23.62-12.39-32.26-22.35,69.47-28.13-35.29-21.68-44.8-47.46,8.39-6.52,42.11,9.51,40.44-5.09-1.96-6.54-7.17-12.37-6.14-19.56,11.63-5.5,42.49,15.49,51.54,12.47,2.02-1.92.81-4.39.02-6.64-14.61-35.21,16.09-10.41,28.04.51-2.5,7.13-4.93,13.91-7.28,20.73Zm311.02,106.92c-1.79-5.74-14.43-23.02-.82-20.78,8.39,1.13,15.29,5.19,21.3,10.99,4.38,4.53,11.77,11.9,16.36,3.56,6.26-6.32,12.55-50.13,24.14-38.78,10.06,5.29,12.19,42.8,21.37,35.77,6.93-5.52,12.86-12.15,20.83-16.26-1.34,10.66-12.09,17.89-17.24,27.12-7.04,17.3,27.15-2.08,33.86.94-31.64,24.37-76.85,19.36-114.64,18.3,1.08-7.82-2.23-14.29-5.16-20.86Zm242.1-4.98c.15,5.37-3.15,14.28-9.1,15.5-18.79,3.81-38.3,3.89-57.25,1.49,22.29-5.72,44.15-11.32,66.35-17Zm-155.76-212.54c11.79,10.9,22.94,20.5,34.82,30.91,24.05,21.52,56.9,27.65,83.81,44.24,9.36,8.5-23.55,40.36-32.9,43.24-46.26,23.74-105.73-80.05-85.73-118.4Zm-46.4,33.01c8.9-16.68,17.58-32.92,28.74-48.3,4.68,3.93,8.95,7.52,12.99,10.92-8.88,24.08-3.23,49.83,8.18,72.35-18.44-6.16-36.48-11.32-55.89-11.94,1.82-8.03,2.25-15.9,5.98-23.03Zm-7.51,30.3c.1-.49.36-.95.85-2.25,18.96,1.3,37.49,5.23,55.12,12.3,7.57,3.07,7.01,1.91,6.44,10.63-.67,10.22-2.05,20.38-4.76,30.27-2.55,9.26-2.09,8.92-11.22,9.16-17.86.22-36.18.22-53.43-4.99-7.45,1.09,7.01-47.66,7-55.12Zm-275.57,30.4c4.17-.49,10.2-4.59,12.19,1,20.66,41.83,37.42,85.33,51.01,130.01-13.62,2.43-26.86-.36-40.12-3.09-27.81-5.02-56.06-16.12-65.23-45.3-9.59-23.84-4.23-48.69,6.91-71,.54-1.25,1.2-2.14,2.69-2.55,10.86-2.97,21.7-6.06,32.55-9.08Zm538.27,49.24c-8.63,15.91-38.27-2.48-47.99-10.74-9.46-10.25,10.83-21.82,18.28-27.1,12.41-5.97,28.97,11,38.27,18.56-2.14,7.05-4.47,13.57-8.56,19.28Zm12.38-11.23c-.3.99-.61,1.97-.9,2.96-.26-.08-.54-.16-.8-.25.31-.97.62-1.95.94-2.94.26.08.53.15.77.23Zm-75.19-32.85c10.16-8.19,23.79-20.44,37.74-16.28,10.84,5.34,39.38,20.5,34.83,34.69-22.07-17.22-35.58-29.26-57.94-4.33-27.06,22.98,25.66,43.49,44.52,41.57,0-.03,0-.05-.02-.08.03.02.07.05.11.08h-.1c-10.52,15.34-21.85,31.34-33.85,45.49-27.22-74.06-17.06-56.31-89.69-48.15-9.54,1.3-11.38,65.43-8,74.86-2.74.16-5.3.33-8.13.49-30.43-71.01-62.91-107.64-144.81-84.83-30.69,5.61-64.85,73.31-31.93,91.82-3.37.62-20.96-2.1-26.41-4.04,13.49-40.09,31.44-83.82-27.54-90.15-11.75-.38-33.54-5.78-42.16,2.98-10.72,21.46-17.31,44.82-22.58,68.18-3.91,35.84,21.39-13.14,24.13-22.37,2.96,7.27,6.95,13.01,15.09,14.07,13.59,2.22,26.45,4.12,40.24,6-4.02,8.17-7.76,19.49-18.02,20.04-14.54-.95-55.29,5.31-63.92-5.88-18.76-41.2-37.93-82.2-57.66-122.93-6.46-8.6-26.92-66.9-38.96-53.1-36.22,28.37-32.5,71.28-54.53,41.5,11.14-31.36,33.95-57.5,67.73-63.43,61.77,87.28,39.11-9.46,5.21-5.75-5.69-.82-6.32-10.21-8.64-14.68-4.97-17.08,14.68-20.1,27.27-20.07,15.82-3.93,1.2-32.07,4.78-43.92.46-3.37,1.82-4.01,4.89-2.69,8.76,4.31,9.27,15.85,13.4,23.65,13.46,11.28,6.73-27.32,12.33-32.08,20.75,8.33,22.31,36.84,20.56,56.18-19.57,24.8-39.17,56.68-28.66,89.84,9.61,10.62,13.22-23.35,15.91-28.84,4.82-19.39,10.31-38.96,18.62-56.83,45.5-41.61,106.86-13.48,135.89,33,25.84,37.51-3.49,85.96-45.84,93.79-24.42,6-53.97,11.08-76.07-3.79,2.56-3.37,42.86-22,43.85-17.23,9.69,17.11,36.39,14.88,28.81-8.64,12.78-.04,44.19-18.21,22.43-28.35-4.98-1.93-9.72-3.01-14.7-5.2,5.51-8.9,16.29-15.91,13.88-27.64-5.35-17.22-21.84,5.4-27.85,11.76-6.43-13-6.93-30.5-20.58-39.25-21.72-10.64-10.45,37.8-12.32,48.53-10.14-3.84-17.96-10.86-28.74-12.79-8.38-2.29-20.36,5.42-15.52,14.83,9.04,14.69,26.58,21.34,40.12,31.35-21.54,2.26-67.1-4.01-39.27,31.62,3.36,4.24-.97,8.85,6.21,12.4,34.01,13.2,73.04,13.12,109.04,10.14,20.76-5.05,31.29-57.92,50.78-71.35.23.15.46.3.67.44-2.85,16.24-6.08,32.42-9.07,48.63-1.3,6.93-.07,9.48,6.64,11.51,18.43,5.28,37.93,5.56,56.97,4.98,18.02,1.59,15.65-30.75,18.76-43.34,19.13,28.09,53.68,59.92,85.9,30.25,8.54-7.21,35.13-33.55,22.7-43.86-14-9.77-30.36-15.43-45.96-22.14-29.4-11-51.12-33.83-74.05-54.26,2.96-4.69,9.57-13.95,15.06-8.95,8.92,6.51,20.91,32.05,33.5,22.59,9.77-10.72,13.66-26.07,26.41-34,5.9,10.84,1.36,23.8,3.01,35.44,8.22,19.49,26.26-22.26,34.06-25.28,11.68,18.83-10.45,46.36,7.09,62.62,2.71,3.16,8.38,4.94,8.89,9.36-.94,17.6.64,35.6-1.79,53-1.12,2.04.08,4.06,1.72,5.16,1.28.69,2.79-.08,3.17-1.48,1.87-6.85,7.59-10.51,12.35-14.86Zm-455.35-73.91c13.94-2.69,24.41,19.19,26.2,30.01-9.77-8.97-18.25-18.87-26.2-30.01Zm69.11-24.8c-10.14,21.73-11.8,46.7-20.94,68.73-4.17-24.71,5.76-49.52,20.94-68.73Zm61.38,79.15c-13.93-10.24-30.8-17.23-42.19-30.58-7.12-14.62,17.78-8.97,23.68-3.42,34.71,24.35,11.94-27.68,21.02-43.49,17.83,1.15,18.04,51.67,28.02,42.21,6.51-6.16,11.63-16.43,20.47-19.02,4.21,10-6.77,17.46-11.84,24.64-9.44,17.06,42,8.1,11.12,27.25-5.75,5.65-25.7,1.96-21.12,10.03,8.98,20.73-13.27,16.97-20.25,3.66-5.49-6.54-43.95,14.06-51.08,18.9-36.38-39.96,55.37-11.35,42.18-30.19Zm412.71,90.15c14.01-15.2,36.13-32.29,57.07-34.9-8.05,17.21-40.94,37.53-57.07,34.9Zm-467.22,215.25c62.18-1.37,124.37-2.48,186.57-2.5,35.44,1.08,71.72-.48,106.39,7.59-62.71,30.7-244.71,12.97-315.35-3.86,0-.23-.02-.46-.02-.69,7.47-.18,14.93-.38,22.4-.54ZM915.47,193.16c-23.72-6.71-91.89-6.51-79.16-44.8,2.5-11.52,15.77-12.85,22.73-20.94,3.4-2.4,3.96-8.5-1.41-8.06-7.59,1.63-13.75,7.4-18.39,13.37-24.86,19.6-61.79,13.77-87.03-2.61-8.4-2.39,10.13-81.77,18.44-35.08,1.65,9.27,3.55,19.61.38,28.72-.91,3.53-5.31,9.72-.86,12.09,4.27.98,5.21-6.03,6.54-8.9,3.84-16.23,13.22-28.89,25.41-39.71,26.21-18.78,13.99,38.75,7.03,49.01,1.54,1.13,2.62,1.56,4.4,2.32,13.01-23.08,30.12-49.63,57.79-55.51,27.8,2.05-15.5,66.22-25.88,74.96,1.38.95,2.66,1.86,4.14,2.87,31.88-30.33,93.78-22.12,65.88,32.29Zm7.39,136.04c.2.23.38.48.57.71-1.68,1.35-3.35,2.68-5.03,4.02-.2-.26-.39-.53-.57-.79l5.03-3.94Z"/>
      <path d="m818.62,230.38h-.1s0-.05-.02-.08c.03.02.07.05.11.08Z"/>
      <path d="m832.84,210.3c.31-.98.62-1.96.94-2.94.26.08.51.15.77.23-.3.99-.61,1.97-.91,2.96-.27-.08-.53-.16-.8-.24Z"/>
    </g>
  </g>
</svg>