<?xml version="1.0" encoding="UTF-8"?>
<svg xmlns="http://www.w3.org/2000/svg" viewBox="0 0 908.58 542.53">
  <defs>
    <style>
      .cls-1 {
        fill: #f8c2a3;
      }
    </style>
  </defs>
  <g id="Calque_2" data-name="Calque 2">
    <ellipse class="cls-1" cx="458.42" cy="316.53" rx="266.85" ry="204.13" transform="translate(-98.66 313.83) rotate(-34.35)"/>
  </g>
  <g id="Calque_1" data-name="Calque 1">
    <path d="m905.72,347.89c-24.12-.33-118.9,2.89-142.96,1.73,16.14-32.05-26.73-92.95-58.39-58.11,4.04-20.53,4.48-40.17-5.81-59.09-6.13-29.13,4.4-59.82-5.11-88.98,14.63-74.62,32.26-44.96,49.01-72.95,4.59-13.31-13.82-34.5-25.52-21.03-12.75,20.36-6.87-12.09-30.21.81,8.42-15.78-11.52-19.32-22.9-16.38,14.48-29.34-23.35-50.24-34.05-16.63-1.33,10.42,5.55,22.83-2.57,31.79-15.06,17.19-38.8,18.5-58.3,28.19-15.35,6.21-31.66,14.76-48.69,11.78-17.58-4.56-34.21-13.23-52.72-13.92-40.21-.59-82.04,25.3-93.49,65.21-1.82,6.71-5.99,11.85-12.23,15.02-15.68,9.36-34.85,13-47.52,26.81-3.27,3.46-7.01,6.58-11.11,9.03l-1.04-.75c2.25-12.42,11.73-22.36,13.02-34.88-.35-6.05-8.99-7.89-12.73-3.48-31.13,29.28-54.23,64.86-66.02,106.07-3.84,9.51-4.25,19.23-2.86,29.09.17,7.72,8.41,8.59,5.24,13.76-25.09,46.03,1.19,122.22,62.1,91.36,30.16-9.56,4.48,47.67,74.35,53.47,31.22-.31,4.98-44.48,7.6-62.07,1.8-49.09,23.41-94.54,30.88-142.72,23.33-126.17-131.06,25.63-164.82,49.19l-.6-.56c30.73-51.98,39.69-82.63,98.39-108.97,66.44-28.3,137.66-76.9,212.54-59.04,63.54,21.76,9.02,103.02-9.27,141.16-19.22,27.09-13.15,3.5-17.68,43.99l-.91.07c-7.92-31.98-26.36,2.32-36.09,13.88-6.75,9.34-13.21,18.86-18.17,29.35-4.07,7.97-8.79,17.35-18,20.19-8.65-26.82,5.02-58.71,7.53-86.23-.14-5.9,2.56-18.53-5.59-19.61-2.38-.22-3.69,1.5-4.67,3.54-54.6,92.08-92.63,278.61,62.61,131.92,11.37-9.96,22.68-19.99,34.04-29.97,1.75-1.68,3.62-3.13,6.16-3.2,1.17,3.41-1,6.32-2.3,9.34-7.98,21.17,25.59,22.26,39.13,20.49,46.94-3.11,72.74-46.21,96.66-81.13-.82,10.51-6.59,20.55-9.33,30.82-1.23,3.56-.63,4.96,3.2,5.52,22.16,2.26,44.57,1.32,66.83,2.2,3.57.07,3.81.33,2.42,3.76-46.44,183.7-671.64,227.8-583.14-3.27,5.05-1.22,60.88,1.68,53.22-6.78-4.11-6.59-1.73-14.52-1.6-21.77-.17-21.92-27.13-5.09-35.86,2.08-7.59,5.78-14.82,11.99-19.54,20.58-.5.9-2.29,1.54-3.49,1.54-121.88-.1-147.71-2.01-163.38-2.01-1.12,0-2,.94-1.95,2.05h0c.05,1.05.92,1.87,1.97,1.86,15.73-.14,49.7.89,163.65,2.65-78.24,236.86,543.71,193.62,594.49,2.65,1.02-2.73,2.38-3.43,5.13-3.42,23.27.13,117.1-1.87,140.37-1.85,3.43.93,4.4-4.61.1-4.16Zm-731.51-.42c8.37-10.42,18.31-18.99,30.38-24.84,4.25-1.5,15.67-7.32,15.11,1.19-.57,8.11-1.8,15.54,1.1,23.68-15.98,2.77-31.74,2.24-48.15,2.51.78-1.29,1.1-1.97,1.56-2.54ZM686.88,55.7c17.75-16.79,18.05,20.86,32.84-2.87,2.94-3.65,5.02-4.21,9.36-2.31,6.08,2.67,8.72,7.6,9.34,14.01,1.35,10.01-7.72,13.94-15.55,16.72-21.89,9.74-28.05,36.12-32.84,57.37-.26-.03-.52-.05-.78-.08-1.4-8.28-3.7-16.45-6.93-24.18-1.88-5.01-4.82-4.18-9.67-3.82-.54-19.33.27-39.92,14.23-54.84Zm-3.94,201.35c4.14,43.69-24.87,80.7-58.66,104.96-37.66,27.72-63.34-15.63-63.47-50.32-2.52-32.8,8.99-64.57,28.32-90.77,7.07-14.82,34.15-25.38,28.8-42.18,27.66,14.63,48.81-17.58,52.51-41.52,1.79-3.97-.38-28.89,7.72-21.54,5.3,8.73,4.93,19.61,8.7,28.91,1.42,2.84,1.32,5.61.99,8.61-1.64,14.57-3.13,29.16-4.69,43.74-2.97,19.91-.62,40.09-.22,60.11Zm-17.64-137.41c-5.46,6.87-25.85,53.98-33.71,49.04-5.99-2.99-14.11-5.52-17.19,2.84-49.6-56.37,24.9-91.5,66.66-117.1.13.1.25.19.37.29-6.75,10.33-11.58,21.32-12.38,33.69-1.84,10.33,1.8,21.85-3.75,31.24Zm2.03,11.28c-2.61,21.82-20.29,58.6-47.12,43.82-2.2-1.75-.75-5.15,1.98-4.9,5.23.13,11.04,6.7,15.48,2.11,13.19-13.52,21.2-31.6,28.89-48.6.27-.04.55-.07.82-.11,0,2.56.34,5.18-.05,7.68Zm-417.66,163.29c47.66-32.82,86.88-82.11,144.71-98.33,54.43-1.94-37.67,175.07-11.73,212.91,2.64,12.57,10.88,36.75-11.08,32.49-10.96-1.64-21.59-4.22-30.62-11.25-22.94-14.05-11.89-47.72-39.18-42.26-14.22,3.96-30.7,14.21-44.16,3.09-30.71-19.4-31.98-72.54-7.94-96.65Zm412.84,56.65c-19.36,27.75-52.82,46.92-87.31,40.95-25.65-5.75-12.49-9.44-11.75-24.83-1.63-8.3-9.94-3.23-13.71.55-12.48,10.82-24.89,21.72-37.37,32.53-144.99,138.64-102.08-50.91-51.4-131.48,5.37,7.62-2.32,30.85-2.75,41.12-2.58,19.81-10.17,40.12-4.47,60.03,8.27,16.71,24.72-12.53,28.41-20.33,9.7-18.62,21.71-36.4,37.15-50.63,5.45-5.81,6.52,9.43,9.87,11.94,11.96,11.02,3.62-30.54,15.45-34.42,5.64-4.01,8.84-10.38,11.87-16.44,127.15-220.95-115.86-141.25-226.05-75.34-46.49,20.14-64.11,68.53-89.13,108.46-13.46-15.19,6.32-48.91,11.1-66.04-1-11.83,76.28-109.75,53.66-57.52-4.09,8.8-17.4,36.82,3.76,21.95,8.51-7.21,15.68-15.74,26.6-19.49,14.69-8.06,36.67-11.68,41.58-30,10.04-36.32,45.72-58.88,81.77-62.38,44.45-.49,55.89,28.57,104.25,4.29,117.7-38.17,44.81-47.53,79.69-78.16,17.92-7.58,24.26,19.21,14.04,30.32-1.64,2.04-3.37,3.73-3.04,6.56,1.01-.1,2.28.16,3.01-.35,4.95-3.49,10.29-5.66,16.42-4.94,4.83.43,14.32,3.58,9.14,9.6-31.64,25.48-84.68,39.91-89.45,87.06-4.55,27.54,36.58,44.19,13.13,61.72-79.84,55.06-60.7,245.82,38.55,154.16,39.1-35.27,45.55-67.3,40.21-117.84-.66-25.94,3.98-51.65,5.76-77.5.36.03.73.05,1.09.07,2.43,24.06-1.87,48.3.11,72.37,24.1,52.36,1.77,82.84-30.2,124.01Zm96.34-2.62c-3.95,3.63-22.34.62-28.79,1.25-14.39-.62-28.6-.54-42.98-1.82,9.1-19.93,9.37-55.56,33.94-62.01,27.71-2.91,49.14,39.01,37.83,62.58Z"/>
  </g>
</svg>