<?xml version="1.0" encoding="UTF-8"?>
<svg xmlns="http://www.w3.org/2000/svg" viewBox="0 0 1818.82 505.63">
  <defs>
    <style>
      .cls-1, .cls-2 {
        stroke: #000;
        stroke-miterlimit: 10;
      }

      .cls-3 {
        fill: #f8e99f;
      }

      .cls-2 {
        stroke-width: 2px;
      }

      .cls-4 {
        fill: #f8c2a3;
      }
    </style>
  </defs>
  <g id="Calque_1" data-name="Calque 1">
    <g id="Calque_5" data-name="Calque 5">
      <ellipse class="cls-4" cx="919.49" cy="302.72" rx="239.59" ry="183.28" transform="translate(-10.47 571.55) rotate(-34.35)"/>
    </g>
    <path class="cls-1" d="m447.51,334.63c114.5,2.5,70.77.93,189.94,3.56-74.49,225.53,517.7,184.35,566.04,2.53.97-2.6,2.26-3.27,4.88-3.26,22.16.12,44.31.1,66.47.11,3.27.88,4.19-4.39.1-3.96-22.97-.31-46.03.88-68.94-.23,15.36-30.51-25.45-88.5-55.6-55.33,3.85-19.54,4.26-38.25-5.53-56.26-5.84-27.73,4.19-56.96-4.87-84.72,13.93-71.05,30.72-42.81,46.66-69.46,4.37-12.68-13.16-32.85-24.3-20.03-12.14,19.38-6.54-11.51-28.76.77,8.01-15.03-10.97-18.4-21.8-15.6,13.78-27.93-22.23-47.84-32.42-15.83-1.26,9.92,5.28,21.74-2.45,30.27-14.34,16.37-36.95,17.61-55.51,26.84-14.62,5.91-30.15,14.05-46.36,11.22-16.74-4.34-32.57-12.6-50.2-13.25-38.29-.56-78.11,24.09-89.02,62.09-1.73,6.39-5.7,11.28-11.64,14.3-14.93,8.91-33.18,12.38-45.25,25.53-3.09,3.27-6.63,6.23-10.5,8.55-.36-.22-.72-.45-1.08-.67,2.15-11.82,11.17-21.29,12.4-33.21-.34-5.76-8.56-7.52-12.12-3.31-29.64,27.88-51.64,61.76-62.86,101-3.66,9.05-4.05,18.31-2.73,27.7.16,7.35,8,8.18,4.99,13.1-23.88,43.83,1.13,116.37,59.13,86.99,28.72-9.1,4.26,45.39,70.79,50.91,29.73-.29,4.74-42.35,7.24-59.1,1.71-46.74,22.29-90.02,29.4-135.89,22.22-120.13-124.79,24.4-156.93,46.84-.19-.17-.38-.35-.57-.53,29.26-49.49,37.79-78.68,93.68-103.75,63.26-26.95,131.07-73.22,202.37-56.21,60.5,20.72,8.58,98.09-8.82,134.41-18.3,25.8-12.52,3.33-16.84,41.9-.29.02-.58.05-.87.07-7.54-30.47-25.1,2.2-34.36,13.21-6.43,8.89-12.58,17.96-17.3,27.95-3.87,7.59-8.37,16.52-17.14,19.22-8.24-25.53,4.78-55.9,7.17-82.1-.13-5.61,2.44-17.65-5.32-18.67-2.27-.21-3.51,1.43-4.45,3.37-51.99,87.68-88.2,265.28,59.62,125.61,10.82-9.49,21.59-19.04,32.41-28.54,1.67-1.6,3.44-2.98,5.87-3.05,1.11,3.25-.95,6.01-2.19,8.89-7.6,20.15,24.37,21.19,37.26,19.51,44.69-2.96,69.26-44,92.04-77.25-.78,10.01-6.28,19.56-8.88,29.35-1.17,3.39-.6,4.72,3.05,5.26,21.1,2.16,42.44,1.26,63.63,2.1,3.4.07,3.63.31,2.3,3.58-44.21,174.91-639.5,216.9-555.23-3.12,4.8-1.16,57.97,1.6,50.67-6.45-3.92-6.28-1.65-13.82-1.52-20.73-.16-20.87-25.83-4.85-34.14,1.98-7.23,5.5-14.11,11.42-18.61,19.6-.48.86-2.18,1.47-3.32,1.47-116.67-.23-74.14-1.23-189.67-1.23m198.11-1.29c7.97-9.92,17.43-18.08,28.93-23.65,4.05-1.43,14.92-6.97,14.39,1.13-.54,7.72-1.72,14.8,1.05,22.55-15.22,2.64-30.22,2.13-45.85,2.39.74-1.23,1.05-1.88,1.49-2.42ZM1133.77,53.53c16.9-15.99,17.18,19.86,31.27-2.73,2.8-3.48,4.78-4.01,8.91-2.2,5.79,2.54,8.3,7.24,8.89,13.34,1.29,9.53-7.35,13.27-14.81,15.92-20.84,9.28-26.71,34.39-31.27,54.62-.25-.03-.5-.05-.74-.08-1.33-7.88-3.53-15.66-6.6-23.02-1.79-4.77-4.59-3.98-9.21-3.64-.52-18.4.25-38.01,13.55-52.22Zm-3.75,191.71c3.94,41.59-23.68,76.83-55.85,99.94-35.85,26.4-60.31-14.88-60.43-47.91-2.4-31.23,8.56-61.48,26.96-86.42,6.73-14.11,32.51-24.16,27.42-40.16,26.34,13.93,46.48-16.74,50-39.53,1.71-3.78-.36-27.51,7.35-20.51,5.04,8.31,4.69,18.67,8.28,27.53,1.35,2.7,1.26,5.34.94,8.2-1.56,13.87-2.98,27.76-4.47,41.65-2.83,18.95-.59,38.17-.21,57.23Zm-16.8-130.83c-5.2,6.54-24.61,51.39-32.1,46.69-5.7-2.85-13.44-5.25-16.37,2.7-47.23-53.67,23.71-87.12,63.47-111.5.12.1.24.18.35.28-6.43,9.84-11.03,20.3-11.79,32.08-1.75,9.83,1.72,20.8-3.57,29.74Zm1.93,10.74c-2.49,20.77-19.32,55.8-44.87,41.72-2.09-1.66-.71-4.9,1.89-4.67,4.98.13,10.51,6.38,14.74,2.01,12.56-12.87,20.19-30.09,27.51-46.27.26-.04.52-.07.78-.1,0,2.44.32,4.93-.05,7.31Zm-397.67,155.48c45.38-31.25,82.73-78.18,137.79-93.62,51.82-1.85-35.87,166.69-11.17,202.72,2.51,11.96,10.36,34.99-10.55,30.94-10.43-1.56-20.56-4.02-29.15-10.71-21.84-13.38-11.32-45.44-37.3-40.24-13.54,3.78-29.23,13.53-42.05,2.94-29.24-18.47-30.45-69.06-7.56-92.02Zm393.08,53.94c-18.43,26.42-50.29,44.68-83.13,38.99-24.42-5.47-11.9-8.99-11.19-23.64-1.55-7.91-9.46-3.08-13.05.52-11.88,10.3-23.7,20.68-35.58,30.97-138.05,132.01-97.2-48.47-48.94-125.19,5.12,7.25-2.21,29.37-2.62,39.15-2.46,18.86-9.68,38.2-4.26,57.16,7.87,15.91,23.53-11.93,27.05-19.36,9.23-17.73,20.67-34.66,35.37-48.21,5.19-5.53,6.21,8.98,9.4,11.37,11.39,10.49,3.45-29.07,14.71-32.77,5.37-3.82,8.42-9.88,11.3-15.65,121.06-210.38-110.31-134.49-215.23-71.74-44.26,19.17-61.05,65.25-84.87,103.27-12.81-14.47,6.02-46.57,10.57-62.88-.96-11.26,72.63-104.49,51.1-54.77-3.9,8.38-16.57,35.06,3.58,20.9,8.1-6.86,14.93-14.99,25.33-18.56,13.99-7.67,34.92-11.12,39.59-28.56,9.56-34.58,43.53-56.07,77.86-59.4,42.32-.47,53.21,27.2,99.26,4.08,112.06-36.34,42.67-45.26,75.87-74.42,17.06-7.22,23.1,18.29,13.37,28.87-1.56,1.94-3.21,3.55-2.89,6.25.96-.1,2.17.15,2.87-.33,4.71-3.32,9.8-5.39,15.63-4.7,4.6.41,13.63,3.41,8.7,9.14-30.13,24.26-80.62,38-85.17,82.89-4.33,26.22,34.83,42.07,12.5,58.77-76.02,52.42-57.79,234.06,36.71,146.79,37.23-33.58,43.37-64.08,38.29-112.2-.62-24.7,3.79-49.18,5.49-73.79.34.03.7.05,1.04.07,2.31,22.91-1.79,45.99.1,68.91,22.94,49.86,1.69,78.87-28.75,118.08Zm91.73-2.49c-3.76,3.45-21.27.59-27.41,1.19-13.7-.59-27.23-.51-40.92-1.73,8.66-18.98,8.93-52.9,32.31-59.04,26.38-2.77,46.79,37.15,36.02,59.59Z"/>
  </g>
  <g id="Calque_3" data-name="Calque 3">
    <g id="Calque_6" data-name="Calque 6">
      <path class="cls-3" d="m1678.89,169.73c28.3,76.97,15.4,150.66-119.37,148.97-135.46-1.7-230.54-61.36-208.2-137.75,21.95-75.07,45.88-122.81,148.39-135.56,14.45-1.8,29.33-2.07,43.36,1.83,99.86,27.76,110.02,52.38,135.81,122.51Z"/>
    </g>
    <path class="cls-2" d="m1812.46,334.52c-55.3-.03-110.67,0-165.98,0,6.69-40.32,14.84-80.3,34.94-116.39,2.5-7.01,15.97-26.23,1.01-26.17-4.59-19.98-28.29-14.15-34.69-29.67-.1-.32-.74-.48-1.13-.71-6.56,26.02-124.57,26.69-149.72,23.26,45.4.56,90.83-2.11,134.79-14.45,8.5-1.93,10.05-9.23,9.48-15.54-.18-1.98-.98-3.68-3.28-4.16,13.65-20.4,2.69-35.38-17.94-43.12-4.68-1.64-7.72.02-8.98,4.83-2.69,8.24-.44,18.69-8.45,24.32-3.49,2.48-5.93,5.86-7.61,9.81-2.32,5.46-6.48,8.83-12.23,10.06-7.19,1.47-14.44,2.84-21.71,3.88,19.91-7.92,62.98-54.25,42.98-74.13-12.33-11.72-26.87-14.76-43.03-10.54-6.25,1.63-8.18,4.78-8.2,11.18,3.63,48.32-50.98,78.21-93.18,77.86-5.56-3.92-11.95-4.7-18.55-5.18-13.25-2.08-39.97-3.35-41.94-20.24,37.76,12.69,76.51-6.54,112.18-18.07,8.75-2.56,44.65-18.27,26.98-28.86-8.13-2.36-16.4-1.44-24.81-3.12,11.61-.24,21.59-2.92,32.31-6.58,5.13-1.26,3.54-5.9,3.17-10.04,4.71,1.56,15.83,1.83,18.41-2.42-.85-2.98-5.52-3.52-8.13-4.2-4.67-.56-9.5-1.03-12.19,4.35-8.23-4.19-32.66-18.54-30.96-28.65.13-.79-1.02-1.78-1.58-2.68-1.29,1.94-1.67,3.68-.71,5.86-1.48,12.91-9.3,24.7-23.29,27.94-8.59,1.78-36.48,10.84-36.74,20.58,2.64,3.02,18.81-4.4,23.83-4.6,21.92-6.46,37.31,17,52.09,10.04,19.22,3.11-25.89,22.64-30.56,23.19-26.69,8.4-54.51,15.1-82.6,15.33-6.73-.3-11.78-3.49-15.98-8.8,16.18-7.28,34.06-12.49,47.37-24.68,6.02-6.74-5.26-9.17-10.29-8.27-13.39,1.73-50.49,13.65-40.14,32.22-4.5,2.96-11.55,5.14-10.78,11.72.78,8.52,4.79,13.52,12.94,16.05,6.11,1.88,12.44,3.06,18.02,6.32-.09.22-.19.43-.28.65-8.91-1.54-17.92-3.25-26.99-2.95-3.11.12-5.59,2.01-6.45,5.24-1.06,11.34,19.74,14.13,27.57,10.17,4.83-1.84,9.7-3.88,10.4-10.1,12.17,1.75,24.23,3.02,36.43,2.62.86-.03,2.04.87,2.59,1.68,4.13,6.13,10.19,9.96,16.92,12.66-29.04-.35-57.78-2.27-86.74-3.38-13.41-.22-33.59,4.45-37.15,19.5-8.25-1.06-14.16,4.6-12.79,12.55,8.89,42.08,24.06,82.54,36.09,123.83-50.59.74-102.15-1.42-152.37.76.82.58,1.59,1.07,2.65.85,0,0,151.86,0,151.86,0-11.66-42.57-28.66-83.89-36.54-127.32-.65-6.32,4.08-9.82,10.61-8.8-.31,11.87,1.25,23.53,3.83,35.08,8.15,36.8,18.15,73.47,33.92,107.8,5.75,14.23,22.63,14.93,35.83,16.28,43.13,1.36,195.94,15.29,217.87-22,55.67-3.79,113.61,1.39,169.55-1.83-.65-.27-1.3-.78-1.96-.78Zm-247.21-264.49c-2.91,2.23-11.14,2.73-16.26.9,1.99-4.34,10.33-4.71,16.26-.9Zm-37.21,40.75c3.43-2.38,10.62-6.8,7.36-11.47-1.51-2.12-4.72-3.14-7.02-1.76-3.2,1.92-6.32,1.52-9.42.21-32-14.77-29.61-13.92-63.64-4.73-.19-.31-.38-.63-.57-.93,20.59-22.01,51.4-9.07,60.69-43.63,5.84,7.12,12.94,12.64,20.46,17.65,3.34,3.19,10.99,4.02,11.59,8.91.51,4.64.49,5.26-3.83,6.81-9.77,3.53-19.73,6.1-30.28,5.33-11.66,1.06.07-17.02-8.22-14.61-2.94,1.22-4.78,3.52-5.15,6.69-1.54,8.35,16.29,13.01,22.8,12.9,6.06.45,21.68-.56,17.62,9.48-5.54,9.15-16.55,12.32-25.72,16.4,4.45-2.4,8.98-4.65,13.31-7.25Zm-21.52-36.77v11.46c-6.44-.97-6.23-9.81,0-11.46Zm-106.66,40.83c9.39-9.13,21.98-14.74,34.8-17.01,3.45-.5,17.64-1.24,11.72,5.22-13.47,11.44-31.18,16.33-46.84,24.16-3.26-4.25-3.31-8.6.32-12.37Zm19.92,51.68c-5.56,10.2-22.14,10.97-30.98,4.72-7.2-4.51-1.68-11.24,5.66-10.14.01-.11.03-.22.05-.33,8.08,1.26,16.16,2.5,24.23,3.87.47.08,1.24,1.5,1.05,1.89Zm38-.64c-12.27-.67-25.39-.79-37.3-3.19-3.43-4-8.29-5.08-12.98-6.5-3.29-1-6.65-1.78-9.85-3.02-5.92-2.28-9.88-8.59-9.17-14.84.8-4.86,6.22-6.6,9.92-8.94,6.27,7.32,13.81,10.85,23.38,9.86,22.36-.93,43.85-7.44,65.66-11.61.09.13.17.25.26.38-27.51,7.61-57.28,20.17-85.75,10.5-1.7-.81-5.13-1.23-4.48,1.61,4.58,23.52,43.9,17.48,60.46,25.04-.05.23-.09.46-.13.7Zm4.36,2.33c42.6-6.24,95.57-30.56,92.33-81.05.08-6.08,1.47-8.46,7.41-9.9,16.78-5.59,50.54,4.41,45.21,26.55-8.45,25.87-27.99,47.52-53.18,57.76-5.23,2.32-11.18,3.04-16.85,4.33-18.92,3.87-37.81,10.61-57.37,8.03-5.02.05-9.43-7.31-10.69-4.74-1.19,4.16,9.85,6.65,12.79,7.55,23.44,4,47.16-2.14,68.55-11.55,5.61-2.5,11.55-2.92,17.39-4.09,11.01-2.15,24.45-2.26,29.16-14.54,1.19-2.6,2.9-5.39,5.15-7.02,13.09-6.77,5.22-34.42,16.95-30.47,22.86,8.14,32.17,26.44,12.91,45.12-2.72,2.77-8.9,8.59-8.99,12.54,6.17-1.7,8.87-11.37,15.14-14.07,3.74,6.85.32,14.87-7.28,16.2-20.32,4.82-40.62,9.82-61.47,11.9-19.72,1.97-39.51,2.26-59.31,2.15-17.11.44-37.31,1.36-47.87-14.69Zm81.01-1.99c-16.9,6.65-34.27,10.84-52.59,9.97,18.06-.54,35.23-5.74,52.59-9.97Zm-182,23.11c7.59-5.61,16.13-9.06,25.58-8.91,26.19.51,52.35,2.18,78.52,3.2,40.17,3.22,80.52,7.44,120.75,1.54,21.26-2.93,44.18-5.13,61.85-18.49,8.69,11.07,29.95,9.36,32.7,25.67-2.25,2.03-4.42,3.98-6.25,5.63-6.83-8-13.52,3.19-17.59,8.21.39-22.95-15.55-16.93-24.76-2.65-2.92-12.73-19.83-19.47-27.16-6.77-9.35-3.68-17.2-1.33-23.89,5.73-8.27-4.49-18.74-2.82-27.16,4.32-8.59-10.43-25.59-8.76-35,3.09-12.91-10.94-24.17-.38-31.42,11.18-2.13-10.02-6.55-22.29-18.44-13.72-5.22,3.37-8.75,8.18-10.64,14.68-5.63-15.65-11.77-24.74-22.59-5.81-4.37-15.65-26.35-13.91-27.58,2.94-3.24-15.06-12.51-18.7-18.18-2.39-4.33-8.34-19.4-18.93-23.88-5.02-1.71-5.97-2.95-12.08-10.35-13.35.47-3.98,2.52-6.85,5.49-9.05Zm270.08,20.15c-.21,14.26-1.97,28.2-8.52,41.85-7.14-12.59,2.4-30.23,7.75-42.05.25.07.51.13.76.2Zm-25.44,1.66c-3.1,11.8-3.56,24.87-8.83,35.83.16-16.03,2.1-31.72,8.06-46.73,2.05,3.6,1.46,7.36.76,10.9Zm-36.22,36.22c-2.12-15.03,2.77-28.28,10.37-41.17,2.57,5.39-5.15,36.79-10.37,41.17Zm-57,11.95c-7.11-11.36-.73-33.94,5.64-44.75,3.84,8.62.15,38.67-5.64,44.75Zm-23.39.5c-3.66-10.19-5.43-20.52-2.48-31.21,1.6,10.34,3.05,20.7,2.48,31.21Zm147.84,83.61c-32.11,25.77-181.39,17.38-226.37,11.87-8.06-1.2-14.43-5.48-17.8-12.91-4.6-10.12-9.03-20.38-12.63-30.89-11-36.11-25.16-73.25-24.86-111.37,9.53,1.06,8.57,16.41,11.45,23.61,2.89,8.95,3.75,19.01,8.01,27.3.25-.1.5-.19.75-.29.45-8.89-17.72-45.68-.41-43.9,6.17,1,10.03,5.02,12.68,10.26.94,1.87,1.43,4.16,1.45,6.27.05,7.43,1.01,14.7,2.97,21.86.29,1.57.92,2.83,2.41,3.56,3.04-7.68-1.52-19.15-2.99-27.22-1.73-5.15,5.63-19.25,10.82-11.55,6.26,11.58,5.38,25.14,8.97,37.41.32-.05.64-.1.95-.15.06-10.47-3.94-20.97-1.66-31.43,1.62-9.49,15.67-12.28,20.61-3.95,2.44,3.64,4.12,7.47,4.02,12.11.16,11.57,1.81,23.51,6.29,34.18.33-.02.66-.04.99-.06.54-11.87-3.42-23.84-4.98-35.65-.98-5.14,2.08-12.39,6.85-14.55,5.88-2.76,8.34,5.92,10.31,9.97,3.66,8.82,2.26,18.71,4.84,27.91.14.75,1.11,1.35,1.7,2.02,3.04-7.94-4.39-18.78-.99-27.14,1.62-7.08,16.31-21.36,21.28-10.76,1.24,4.05,4.93,11.75,3.94,15.62-3.29,11.36-3.43,27.92,4.02,37.28.47-1.02,1.41-2.08,1.35-3.07-.63-9.89-1.05-19.83-2.33-29.65-.59-4.57-.12-8.28,2.58-11.94,4.96-7.69,17.04-16.37,24.78-7.73.98,1.12,1.13,2,.37,3.43-5.56,10.47-8.42,21.69-8.42,33.52.45,3.56.39,12.09,4.38,13.31,6.69-.94,9.3-30.63,9.11-36.85.06-3.44-1.12-6.89-1.65-10.36,2.55-12.12,20.96-15.12,30.21-8.15,2.43,1.71,2.64,2.83,1.19,5.48-4.18,7.62-6.13,15.96-6.8,24.47-.39,12.16-2.16,24.64-.14,36.7.39.02.78.04,1.16.06,5.42-17.72,7.23-36.68,9.29-55.13.76-3.53-1.79-8.21,2-10.46,5.65-5.18,12.95-3.97,19.98-3.97.93.01,1.85.75,3.02,1.27-7.12,10.02-17.74,34.6-10.14,45.51,1.16-.89,2.97-1.55,3.37-2.7,4.27-12.68,9.42-25.61,9.07-39.19.3-9.72,14.24-12.91,21.83-9.07-6.81,14.75-7.48,30.8-8.8,46.65-.36,1.7.6,3.02,1.47,4.36,7.49-5.01,9.21-33.89,11.26-43.58.54-2.72-1.8-5.86-1.07-8.64,6.3-11.16,22.06-3.53,23.6,7.2.22.96-.22,2.25-.72,3.17-4.58,8.39-8.56,17.06-10.04,26.55-.38,5.06-1.06,10.84.17,15.78,8.34,11.58,13.4-31.59,13.21-36.29.51-3.13-1.32-6.08.5-9.11,3.23-4.36,6.14-9.02,11.39-11.27,12.11-4.23,11.52,14.47,7.62,21.61-5.81,13.44-13.77,27.69-13.79,42.51,9.09-12.32,11.94-28.87,16.67-43.42.59-4.44,10.55-20.71,15.75-16.6,1.58,1.56,1.58,3.18.34,5.26-7.02,12.8-21.03,38.55-18.1,52.73,9.42-5.42,17.95-32.23,20.33-43.16,1.15-6.61-.36-14.37,7.61-17.43.38,5.78-1.16,10.99-3.21,16-5.58,13.65-11.33,27.24-17.09,40.82-11.67,27.06-17.22,55.63-22.57,84.5h4.5c.17.23.35.45.53.67-2.11,2.27-4.03,4.77-6.37,6.76Zm-246.38-117.22c.34-.05.67-.1,1.01-.16.9,5.9,1.79,11.81,2.69,17.71-.34.05-.68.1-1.02.16-.89-5.9-1.78-11.81-2.67-17.71Zm46.05,1.85c.29-.05.58-.1.87-.15,1.22,7.49,2.44,14.98,3.67,22.46-.27.09-.53.17-.8.25-1.25-7.53-2.5-15.05-3.75-22.57Zm116.16-16.12c-.03,18.75-3.99,36.97-7.57,55.26-.63-18.85-.95-37.66,7.57-55.26Zm99.09,9.28c-3.61,10.11-7.22,20.22-10.83,30.32-.36-.13-.72-.26-1.08-.39,3.63-10.1,7.25-20.2,10.88-30.29.34.12.68.24,1.02.36Zm20.75-17.18c-1.45,18.19-8.83,34.13-18.58,49.17,2.63-17.74,9.66-33.81,18.58-49.17Zm-32.3,130.22c6.02-37.72,17.05-73.99,33.29-108.51,3.89-10.41,9.2-20.65,9.36-32,9.83-.13,1.39,12.51.02,17.26-6.47,14.51-13.54,28.77-19.5,43.48-10.35,24.46-13.3,50.89-18.17,76.79-.75,3.58-1,3.53-5.01,2.98Z"/>
  </g>
</svg>