<?xml version="1.0" encoding="UTF-8"?>
<svg xmlns="http://www.w3.org/2000/svg" viewBox="0 0 1049.92 1046.8">
  <defs>
    <style>
      .cls-1 {
        fill: #c58bb1;
      }

      .cls-2 {
        fill: none;
        stroke: #000;
        stroke-miterlimit: 10;
        stroke-width: 5px;
      }
    </style>
  </defs>
  <g id="Calque_4" data-name="Calque 4">
    <ellipse class="cls-1" cx="524.95" cy="463.46" rx="137.19" ry="164.43"/>
  </g>
  <g id="Calque_3" data-name="Calque 3">
    <path class="cls-2" d="m343.33,505.95s242.85-84,240.25,48.33c-2.05,104.3-126.55,43.52-116.6-26.8,11.4-80.65,27.66-130.23,33.73-146.9.68-1.86-1.47-3.46-3.06-2.29l-23.54,17.24c-1.77,1.3-4.03-.79-2.89-2.66l45.92-75.04c.84-1.37,2.87-1.24,3.53.22l32.15,71.19c.81,1.78-1.17,3.54-2.85,2.54l-22.34-13.31c-1.25-.75-2.86.05-3.01,1.51-1.82,17.15-10.49,101.02-9.65,139.98,1.09,50.82,62.19,80.85,107.68,28.54,103.6-119.16,11.43-273.49-110.35-259.19-256.86,30.16-136.52,401.05,85.62,292.86,18.42-8.97,26.76-27.16,59.42-52.34l18.07-13.6c17.09-9.75,36.18-15.48,55.81-16.76h0"/>
  </g>
</svg>