<?xml version="1.0" encoding="UTF-8"?>
<svg id="Horizontal" xmlns="http://www.w3.org/2000/svg" viewBox="0 0 1858.55 792">
  <defs>
    <style>
      .cls-1 {
        letter-spacing: .5em;
      }

      .cls-2 {
        letter-spacing: .5em;
      }

      .cls-3 {
        stroke-width: 5.53px;
      }

      .cls-3, .cls-4 {
        stroke: #000;
        stroke-miterlimit: 10;
      }

      .cls-5 {
        letter-spacing: .5em;
      }

      .cls-4 {
        stroke-width: 3.95px;
      }

      .cls-6 {
        letter-spacing: .49em;
      }

      .cls-7 {
        letter-spacing: .5em;
      }

      .cls-8 {
        fill: #f8c2a3;
      }

      .cls-9 {
        font-family: MontserratRoman-SemiBold, Montserrat;
        font-size: 36.15px;
        font-variation-settings: 'wght' 600;
        font-weight: 600;
      }
    </style>
  </defs>
  <g id="tache">
    <path class="cls-8" d="m107.56,597.56c4.13,20.66,14.59,41.48,29.87,54.54,17.19,14.69,38.44,18.01,56.46,13.76,42.92-10.12,67.58-56.83,84.34-103.46,8.97-24.94,16.68-50.75,23.1-77.28,4.38-18.1,7.34-40.55-4.51-57.49-7.49-10.71-19.22-15.98-29.78-16.52-10.55-.54-20.26,2.96-29.77,6.43-24.38,8.9-49.36,18.18-67.57,37.88-19.66,21.26-29.43,52.56-47.47,75.53-14.98,19.08-21.03,34.83-14.68,66.61Z"/>
  </g>
  <path id="chef" d="m185.83,632.68c-15.64,0-29.84-5.42-42.3-16.15-9.85-8.48-18.56-20.24-26.1-35.24-41.1,6.42-72.66-5.74-90.04-21.46-15.22-13.77-22.07-31.77-18.33-48.17,3.93-17.2,18.57-30.34,41.23-37,4.66-1.37,21.57-5.23,27.04.25,0,2.74-16.44,10.96-24.94,14.69-14.4,6.31-24.83,15.42-27.19,25.75-2.39,10.47,2.58,22.51,13.29,32.2,13.8,12.48,38.77,22.11,71.91,18.02-13.89-34.96-22.93-83.35-26.98-144.78l-.34-5.12c-.06-.97.56-1.84,1.5-2.09l4.96-1.33c116.53-31.23,187.59-12.58,221.65,10.55-.03-4.39-.02-9.2,0-14.45,0-2.56.02-5.01.02-7.3,0-16.96,5.77-49.4,10.85-78.03.54-3.06,1.11-6.26,1.68-9.46-13.11-3.81-24.58-9.13-32.67-14.64-9.09-6.21-13.32-12.58-12.57-18.94,1.39-11.83,12.02-18.89,28.43-18.89.06,0,.12,0,.19,0,11.64.04,36.17,4.72,37.75,18.94.37,3.32-.31,9.45-2.16,20.84,12.54,2.19,26.2,2.61,39.28-.44,32.58-7.59,48.91-34.43,48.53-79.78-.26-31.62-8.71-51.45-25.12-58.94-40.67-18.56-125.79,34.71-173.09,75.04-5.65,4.82-13.22,11.69-21.98,19.64-60.54,54.96-127.17,111.78-170.01,111.78-6.41,0-12.28-1.27-17.52-4-20.01-10.44-26.74-38.77-20.57-86.6,6.71-52.1,28.81-91.58,65.69-117.35,76.7-53.58,189.19-28.89,193.94-27.81,4.46,1.01,41.16,13.42,40.15,17.88-1.01,4.46-39.35-.72-43.81-1.73-1.34-.3-110.3-24.07-180.85,25.28-32.86,22.98-52.61,58.59-58.7,105.85-5.03,39.01-.94,63.15,11.81,69.81,33.45,17.46,128.26-68.61,168.74-105.36,8.87-8.05,16.52-15,22.37-19.98,5.13-4.38,126.44-106.85,190.7-77.5,22.78,10.4,34.49,35.25,34.81,73.87.45,54.73-22.44,78.49-41.73,88.78-19.86,10.6-43.78,11.68-65.44,7.99-.47,2.7-.98,5.58-1.53,8.64-4.72,26.57-10.59,59.64-10.59,75.13,0,2.31,0,4.78-.02,7.35-.02,7.45-.06,19.31.27,29.36.35.42.68.85,1,1.27,8.97,11.74,6.85,19.42,4.79,22.96-4.42,7.58-10.08,6.99-12.31,6.38-6.2-1.69-8.76-7.35-9.75-23.87-1.93-1.89-4.29-3.92-7.15-6.02-15.35-11.28-74.94-44.94-204.18-11.95,4.27,58.02,13.3,103.89,26.62,135.97,4.25-1.05,8.61-2.31,13.08-3.82,26.9-9.06,47.46-19.68,61.32-31.53-9.77-12.55-15.49-27.82-11.63-45.74,4.23-19.62,10.16-29.52,19.23-32.1,6.73-1.91,13.71.82,20.75,8.14,9.18,11.99,9.06,18.57,9.22,28.43l.02,1.16c.2,11.81-3.15,25.89-14.74,40.22,19.23,17,46.14,26.65,46.59,26.81.26.09,8.89,3.07,21.57,5.7,14-23.31,27.89-53.08,28.95-80.63l.31-7.96h7.97c29.57,0,68,14.84,78.53,38.81,4.45,10.13,6.06,26.21-11.49,45.3-25.22,27.43-66.61,27.43-96.21,22.85-4.37,6.78-8.57,12.8-12.24,17.84-1.56,2.14-3.11,4.49-4.74,6.98-3.12,4.75-6.65,10.13-11.07,15.07-8.2,9.17-20.02,14.43-32.44,14.43h-48.71c-1.83.14-3.65.21-5.45.21Zm-51.59-54.95c6.01,11.11,12.72,19.9,20.09,26.25,10.64,9.16,22.39,13.08,35.92,11.95l.68-.03h49.05c7.71,0,15.03-3.25,20.09-8.91,3.6-4.03,6.64-8.66,9.58-13.13,1.67-2.54,3.4-5.17,5.2-7.64,2.48-3.4,5.21-7.27,8.08-11.53-10-2.38-16.62-4.67-17.57-5.01-2.06-.72-30.91-11.05-52.65-30.55-14.28,12.41-35.71,24.59-67.32,35.24-3.78,1.27-7.5,2.39-11.15,3.37Zm175.67-15.09c25.03,2.96,56.17,1.48,74.59-18.56,9.36-10.18,12.15-19.16,8.51-27.44-6.71-15.28-33.08-26.41-55.74-28.54-2.98,26.01-14.82,52.62-27.37,74.53Zm-96.48-97.25c-1.25.2-4.26,4.72-7.45,19.51-2.41,11.19.86,21.25,7.02,30.01,6.43-8.7,9.62-17.93,9.46-27.59l-.02-1.18c.07-24.92-8.38-20.85-9.01-20.75Zm81.78-184.45c2.97,4,15.15,11.06,31.32,16.04,1-6.25,1.73-11.38,1.85-13.98-3.91-3.04-19.34-7.36-29.29-4.39-2.5.75-3.48,1.62-3.87,2.33Z"/>
  <g id="joy">
    <path id="y" class="cls-4" d="m906.84,308.9c2.41,0,4.89,2.59,7.42,7.76-3.38,18.05-9.59,43.24-18.64,75.55,41.99-25.37,120.32-53.02,119.45-52.07-2.99,3.09-18.34,13.89-48.5,26.13-35.59,17.8-61.35,32.57-77.28,44.31-41.39,124.98-82.05,187.47-121.98,187.47-12.91,0-20.75-9.53-23.53-28.59,0-41.53,38.55-92.79,115.65-153.76,15.81-8.21,23.71-15.59,23.71-22.16l17.37-61.16v-1.33h-1.27c-33.54,47.72-59.24,71.58-77.1,71.58h-2.53c-9.05,0-14.42-6.94-16.11-20.83v-3.79c0-19.31,4.16-34.53,12.49-45.64h3.62c1.93,0,3.2,2.15,3.8,6.44-5.79,12.88-8.69,24.62-8.69,35.22v9.09c.48,5.18,1.69,7.76,3.62,7.76h2.53c15.56,0,42.95-26.89,82.17-80.67.84,0,2.11-.44,3.8-1.33Zm-151.85,260.56c0,11.24,4.52,16.85,13.57,16.85,31.97,0,67.26-55.55,105.88-166.64-19.55,10.6-48.62,36.61-87.24,78.02-21.48,30.42-32.22,54.35-32.22,71.77Z"/>
    <path id="o" class="cls-4" d="m728.2,383.13c-1.45-.88-3.56-1.33-6.33-1.33-11.46,17.42-21.84,26.13-31.13,26.13-16.53-2.4-24.8-10.67-24.8-24.81v-9.09c0-9.72,2.47-18.81,7.42-27.27l-1.27-6.63v-6.44c0-18.43,12.85-30.61,38.55-36.55h6.33c13.27,0,19.91,9.97,19.91,29.92,0,11.36-3.32,26.13-9.95,44.31h1.27m0,0c24.01,0,51.76-11.68,83.25-35.03h3.8c2.53.76,3.8,3.35,3.8,7.76-34.03,26.01-64.31,39.01-90.85,39.01m-49.77-22.16c0,2.15-.84,7.83-2.53,17.04,0,12.12,5.37,18.18,16.11,18.18,3.98,0,9.83-5.62,17.56-16.85-6.4,0-16.41-6.12-30.04-18.37h-1.09Zm4.89-25.94c0,16.41,9.95,27.71,29.86,33.9h2.53c6.63-16.28,9.95-29.79,9.95-40.52v-5.11c0-10.48-3.74-15.72-11.22-15.72-15.69,0-26.06,8.71-31.13,26.13v1.33Z"/>
    <g id="j">
      <path class="cls-4" d="m568.94,319.31h3.8c2.41-1.39,3.62-2.65,3.62-3.79v-15.72c0-1.26-1.63-2.59-4.89-3.98-3.38,1.39-5.07,2.71-5.07,3.98v16.85c0,1.77.84,2.65,2.53,2.65Z"/>
      <path class="cls-4" d="m679.7,337.49c-31.61,9.22-68.96,30.11-112.03,62.68,4.22-29.67,6.33-50.56,6.33-62.68,0-2.52-.84-3.79-2.53-3.79h-5.07l-2.35,1.33c-2.53,28.4-5.43,53.15-8.69,74.23-65.64,63.5-98.46,116.46-98.46,158.87v1.33c2.05,19.95,9.11,29.92,21.18,29.92h5.07c36.68,0,64.07-60.78,82.17-182.35,24.13-20.7,49.83-38.06,77.1-52.07,25.46-10.23,39.15-17.17,41.08-20.83v-1.33l-3.8-5.3Zm-197.82,251.47c-9.17,0-13.76-5.68-13.76-17.04v-5.11c0-35.98,27.81-81.99,83.43-138.04h1.27c-18.46,106.8-42.11,160.2-70.95,160.2Z"/>
      <path class="cls-3" d="m561.2,352.2v-12.81c-22.06,16.64-56.39,36.15-103.2,61.17-24.13,13.13-29.76,16.46-33.92,20.82-2.45,2.56,79.19-32.14,137.12-69.17Z"/>
    </g>
  </g>
  <text class="cls-9" transform="translate(484.75 248.57) scale(.96 1)"><tspan class="cls-2" x="0" y="0">ma</tspan><tspan class="cls-5" x="96.17" y="0">n</tspan><tspan class="cls-2" x="139.04" y="0">g</tspan><tspan class="cls-7" x="182.21" y="0">e</tspan><tspan class="cls-1" x="222.59" y="0">z </tspan><tspan class="cls-5" x="287.96" y="0">h</tspan><tspan class="cls-2" x="330.83" y="0">eu</tspan><tspan class="cls-6" x="414.09" y="0">r</tspan><tspan class="cls-2" x="446.99" y="0">eux</tspan></text>
</svg>